<svg width="0" height="0" class="hidden">
  <symbol xmlns="http://www.w3.org/2000/svg" id="delivery" viewBox="0 0 22 22">
    <g clip-path="url(#clip0_0_674)">
    <g id="Group">
    <g id="Group_2">
    <g id="Group_3">
    <path id="Vector" d="M5.1332 15.0334C4.52571 15.0334 4.0332 15.526 4.0332 16.1334C4.0332 16.7409 4.52567 17.2334 5.1332 17.2334C5.74074 17.2334 6.2332 16.741 6.2332 16.1334C6.23252 15.5262 5.74044 15.0341 5.1332 15.0334ZM5.1332 16.5001C4.93069 16.5001 4.76655 16.336 4.76655 16.1334C4.76655 15.9309 4.93069 15.7668 5.1332 15.7668C5.33571 15.7668 5.49986 15.9309 5.49986 16.1334C5.49964 16.3359 5.33563 16.4999 5.1332 16.5001Z"/>
    <path id="Vector_2" d="M16.8676 15.0334C16.2601 15.0334 15.7676 15.526 15.7676 16.1334C15.7676 16.7409 16.2601 17.2334 16.8676 17.2334C17.4751 17.2334 17.9676 16.741 17.9676 16.1334C17.9669 15.5262 17.4748 15.0341 16.8676 15.0334ZM16.8676 16.5001C16.6651 16.5001 16.5009 16.336 16.5009 16.1334C16.5009 15.9309 16.6651 15.7668 16.8676 15.7668C17.0701 15.7668 17.2342 15.9309 17.2342 16.1334C17.2341 16.3359 17.07 16.4999 16.8676 16.5001Z"/>
    <path id="Vector_3" d="M21.7205 9.81411L19.1947 6.96958C18.9854 6.73394 18.6852 6.5994 18.37 6.60005H15.0333V4.40005C15.0327 3.79281 14.5406 3.30069 13.9333 3.30005H1.1C0.492766 3.30069 0.000644567 3.79281 3.58087e-08 4.40005V13.9334C-4.29329e-05 14.0306 0.038586 14.1239 0.107379 14.1927C0.176129 14.2615 0.269414 14.3001 0.366695 14.3001H0.733348V15.4001C0.733992 16.0073 1.22611 16.4994 1.83335 16.5001H2.59596C2.77668 17.7625 3.85804 18.7001 5.13335 18.7001C6.40866 18.7001 7.49001 17.7625 7.67074 16.5001H14.3293C14.5101 17.7625 15.5914 18.7001 16.8667 18.7001C18.1421 18.7001 19.2234 17.7625 19.4041 16.5001H20.9C21.5072 16.4994 21.9994 16.0073 22 15.4001V10.5453C21.9997 10.2755 21.9003 10.0153 21.7205 9.81411ZM0.733348 13.5667V4.40005C0.733562 4.19762 0.897574 4.03357 1.1 4.0334H13.9333C14.1358 4.03361 14.2998 4.19762 14.3 4.40005V13.5667H0.733348ZM2.59596 15.7667H1.83335C1.63092 15.7665 1.46687 15.6025 1.4667 15.4V14.3H3.34056C2.93777 14.6937 2.67605 15.2092 2.59596 15.7667ZM5.13335 17.9667C4.12083 17.9667 3.3 17.1459 3.3 16.1334C3.3 15.1208 4.12083 14.3 5.13335 14.3C6.14586 14.3 6.9667 15.1209 6.9667 16.1334C6.96549 17.1454 6.14535 17.9655 5.13335 17.9667ZM8.8 15.7667H7.6707C7.5906 15.2092 7.32892 14.6937 6.92613 14.3H8.8V15.7667ZM12.1 15.7667H9.53335V14.3H12.1V15.7667ZM14.3293 15.7667H12.8333V14.3H15.0739C14.6711 14.6937 14.4094 15.2092 14.3293 15.7667ZM16.8667 17.9667C15.8541 17.9667 15.0333 17.1459 15.0333 16.1334C15.0333 15.1208 15.8541 14.3 16.8667 14.3C17.8792 14.3 18.7 15.1208 18.7 16.1334C18.6988 17.1454 17.8787 17.9655 16.8667 17.9667ZM21.2667 15.4C21.2664 15.6025 21.1024 15.7665 20.9 15.7667H19.404C19.2212 14.5054 18.1411 13.569 16.8667 13.5667H15.0333V7.3334H16.5V11C16.5006 11.6073 16.9928 12.0994 17.6 12.1H21.2667V15.4ZM21.2667 11.3667H17.6C17.3976 11.3665 17.2335 11.2025 17.2333 11V7.3334H18.37C18.4753 7.3328 18.5758 7.3774 18.6459 7.45586L21.1727 10.3015C21.2328 10.3685 21.2663 10.4552 21.2667 10.5453V11.3667H21.2667Z"/>
    </g>
    </g>
    </g>
    </g>
    <defs>
    <clipPath id="clip0_0_674">
    <rect width="22" height="22"/>
    </clipPath>
    </defs>
  </symbol>

  <symbol xmlns="http://www.w3.org/2000/svg" id="facebook" viewBox="0 0 13 13">
    <g clip-path="url(#clip0_0_743)">
    <path id="Vector" d="M7.38412 12.8505H5.35566C5.01685 12.8505 4.74123 12.5749 4.74123 12.2361V7.6608H3.55779C3.21897 7.6608 2.94336 7.38509 2.94336 7.04637V5.08585C2.94336 4.74704 3.21897 4.47142 3.55779 4.47142H4.74123V3.48967C4.74123 2.51622 5.0469 1.68802 5.62509 1.09476C6.20589 0.498784 7.01756 0.183838 7.97236 0.183838L9.51935 0.18635C9.85759 0.18693 10.1327 0.462545 10.1327 0.800781V2.62107C10.1327 2.95989 9.8572 3.2355 9.51848 3.2355L8.47691 3.23589C8.15926 3.23589 8.07837 3.29958 8.06107 3.3191C8.03256 3.35147 7.99864 3.44299 7.99864 3.6957V4.47132H9.44021C9.54873 4.47132 9.65388 4.49809 9.74423 4.54854C9.93915 4.65745 10.0603 4.86339 10.0603 5.08595L10.0596 7.04646C10.0596 7.38509 9.78395 7.6607 9.44514 7.6607H7.99864V12.2361C7.99864 12.5749 7.72293 12.8505 7.38412 12.8505ZM5.48381 12.1079H7.25597V7.32836C7.25597 7.10213 7.44007 6.91813 7.6662 6.91813H9.31699L9.31767 5.21399H7.66611C7.43997 5.21399 7.25597 5.02999 7.25597 4.80376V3.6957C7.25597 3.40559 7.28545 3.07566 7.50443 2.82769C7.76903 2.52791 8.18603 2.49332 8.47672 2.49332L9.39015 2.49293V0.928731L7.97178 0.926412C6.43734 0.926412 5.48381 1.90865 5.48381 3.48967V4.80376C5.48381 5.0299 5.2998 5.21399 5.07367 5.21399H3.68593V6.91813H5.07367C5.2998 6.91813 5.48381 7.10213 5.48381 7.32836V12.1079ZM9.5179 0.928925H9.518H9.5179Z"/>
    </g>
    <defs>
    <clipPath id="clip0_0_743">
    <rect width="12.6419" height="12.6667" transform="translate(0.208984 0.208496)"/>
    </clipPath>
    </defs>
  </symbol>

  <symbol xmlns="http://www.w3.org/2000/svg" id="favorite" viewBox="0 0 18 16">

        <symbol xmlns="http://www.w3.org/2000/svg" viewBox="0 0 18 16" id="favorite">
          <path
            id="Vector" d="M16.0484 28.4514L16.0481 28.4511C14.7129 27.3161 13.426 26.2497 12.2927 25.3108C12.2921 25.3103 12.2915 25.3098 12.2909 25.3093L12.2888 25.3075L12.2889 25.3075L12.2851 25.3044C8.94893 22.5404 6.11676 20.1917 4.15351 17.8887C1.97642 15.3347 1 12.9618 1 10.3965C1 7.87786 1.88762 5.57206 3.48072 3.89203C5.09177 2.19325 7.30325 1.25464 9.71879 1.25464C11.5143 1.25464 13.1535 1.80429 14.6032 2.89433C15.3373 3.44644 16.0065 4.12488 16.5988 4.9212L16.9999 5.46044L17.4011 4.92127C17.9937 4.12485 18.6626 3.44642 19.3969 2.89438L19.3969 2.89436C20.8467 1.8043 22.4859 1.25464 24.2814 1.25464C26.6967 1.25464 28.9084 2.19325 30.5195 3.89203C32.1126 5.57204 32.9999 7.87782 32.9999 10.3965C32.9999 12.9618 32.0237 15.3347 29.8467 17.8884L29.8467 17.8885C27.8835 20.1916 25.0518 22.5399 21.7163 25.3035L21.7162 25.3036L21.7159 25.3039C20.5801 26.2446 19.2905 27.3133 17.9516 28.4516L17.9514 28.4517C17.6905 28.6737 17.3526 28.7981 17 28.7981C16.6472 28.7981 16.3096 28.6738 16.0484 28.4514Z"         />
        </symbol>
  </symbol>

  <symbol xmlns="http://www.w3.org/2000/svg" id="full-down-arrow" viewBox="0 0 7 3">
    <path d="M3.5 3L0.468911 -5.70966e-07L6.53109 -4.09935e-08L3.5 3Z"/>
  </symbol>

  <symbol xmlns="http://www.w3.org/2000/svg" id="contacts-tel" viewBox="0 0 40 40" fill="none">
    <path d="M39.2838 31.1772L31.2825 23.2811C30.3274 22.3386 28.7736 22.3386 27.8183 23.2811L25.7377 25.3344C25.0858 25.9778 24.8797 26.8964 25.1177 27.7146L24.3327 28.4893C24.3325 28.4896 24.3323 28.4897 24.3321 28.49C23.7746 29.0408 20.3026 28.1955 16.1057 24.0538C11.9095 19.9128 11.0528 16.4869 11.6103 15.9357C11.6103 15.9356 11.6104 15.9356 11.6104 15.9356L12.3962 15.1602C12.618 15.2231 12.8469 15.2552 13.0759 15.2552C13.7032 15.2552 14.3304 15.0197 14.808 14.5484L16.8887 12.4951C17.8438 11.5526 17.8438 10.0192 16.8887 9.07655L8.88743 1.18031C8.42485 0.723804 7.8097 0.472412 7.15547 0.472412C6.50108 0.472412 5.88616 0.723961 5.4235 1.18031L3.34269 3.23378C2.69078 3.87714 2.48469 4.79581 2.72276 5.61398C2.72276 5.61398 2.05728 6.27701 2.02418 6.31888C-0.189259 8.74692 -0.604544 12.5697 0.86287 17.1401C2.29982 21.6152 5.39751 26.3558 9.58545 30.4885C13.7732 34.6213 18.577 37.6783 23.1116 39.0965C24.9332 39.6661 26.6373 39.9484 28.1848 39.9484C30.7221 39.9484 32.8375 39.189 34.3539 37.6926L34.7904 37.2618C35.009 37.3238 35.2372 37.3572 35.4709 37.3572C36.1253 37.3572 36.7404 37.1057 37.2029 36.6493L39.2837 34.5959C40.2388 33.6533 40.2388 32.1198 39.2838 31.1772ZM7.15547 2.88952L15.1568 10.7858L13.0773 12.8403C13.0773 12.8403 13.0769 12.8399 13.0762 12.8392L13.0463 12.8096L9.07549 8.89104L5.07474 4.94299L7.15547 2.88952ZM32.622 35.9833C32.6218 35.9835 32.6217 35.9836 32.6216 35.9837C30.8595 37.7224 27.7449 38.0096 23.8516 36.792C19.6843 35.4888 15.2329 32.6431 11.3176 28.7791C7.40223 24.9152 4.5186 20.5225 3.1981 16.4098C1.96429 12.5675 2.25531 9.49378 4.01758 7.75458L4.01774 7.75442L4.23866 7.5364L10.4482 13.6642L9.87862 14.2263C9.87823 14.2267 9.87791 14.2272 9.87743 14.2276C7.51787 16.5591 10.353 21.7951 14.3739 25.7632C17.3833 28.7331 21.1126 31.0476 23.789 31.0476C24.689 31.0476 25.4699 30.7859 26.0643 30.1993C26.0645 30.199 26.0647 30.1989 26.0649 30.1986L26.6338 29.6372L32.8433 35.7651L32.622 35.9833ZM35.4711 34.9401L27.4697 27.0438L29.5504 24.9905L37.5517 32.8866C37.5517 32.8866 35.4718 34.9408 35.4711 34.9401Z" fill="#956D84"/>
  </symbol>

  <symbol xmlns="http://www.w3.org/2000/svg" id="contacts-clock" viewBox="0 0 40 40" fill="none">
    <g clip-path="url(#clip0_0_4440)">
    <path d="M20 0C8.95431 0 0 8.95431 0 20C0 31.0457 8.95431 40 20 40C31.0457 40 40 31.0457 40 20C39.9858 8.96021 31.0398 0.014157 20 0ZM21 37H20.858C20.858 37 20.4738 37 20 37C19.5262 37 19.142 37 19.142 37C9.73391 36.5508 3.44916 30.2661 3 20.858C3 20.858 3 20.4738 3 20C3 19.5262 3 19.142 3 19.142C3.44916 9.73391 9.73391 3.44916 19.142 3C19.142 3 19.5262 3 20 3C20.4738 3 20.858 3 20.858 3C30.2661 3.44916 36.5508 9.59191 37 19C37 19 37 19.5262 37 20C37 20.4738 37 20.858 37 20.858C36.5505 30.2692 30.4114 36.5551 21 37Z" fill="#956D84"/>
    <path d="M29.0505 27.9795L20.8566 19.6483V10.9911C20.8566 10.5172 20.4725 10.1331 19.9986 10.1331C19.5248 10.1331 19.1406 10.5172 19.1406 10.9911V20.0001C19.1416 20.2252 19.2309 20.4409 19.3894 20.6007L27.8236 29.1806C28.1553 29.5194 28.6988 29.5252 29.0376 29.1935C29.3764 28.8618 29.3822 28.3183 29.0505 27.9795Z" fill="#956D84"/>
    </g>
    <defs>
    <clipPath id="clip0_0_4440">
    <rect width="40" height="40" fill="white"/>
    </clipPath>
    </defs>
  </symbol>

  <symbol xmlns="http://www.w3.org/2000/svg" id="gps" viewBox="0 0 34 51" fill="none">
    <path d="M17 0.875488C7.62623 0.875488 0 8.40142 0 17.652C0 21.3694 2.2177 27.0228 6.97928 35.4435C10.2285 41.1893 13.4627 46.0425 13.5992 46.2469L15.9368 49.7436C16.1725 50.0963 16.5718 50.3085 17 50.3085C17.4282 50.3085 17.8275 50.0963 18.0632 49.7436L20.4007 46.2471C20.5359 46.045 23.7465 41.2337 27.0207 35.4435C31.7823 27.0232 34 21.3698 34 17.652C34 8.40142 26.3738 0.875488 17 0.875488ZM24.7963 34.2184C21.5677 39.9277 18.4077 44.6634 18.2745 44.8624L17 46.7689L15.7259 44.8629C15.592 44.6623 12.4078 39.8841 9.2037 34.2184C4.78695 26.4074 2.54744 20.8336 2.54744 17.652C2.54744 9.78763 9.03078 3.38946 17 3.38946C24.9692 3.38946 31.4526 9.78763 31.4526 17.652C31.4526 20.834 29.2131 26.4076 24.7963 34.2184Z" fill="#956D84"/>
    <path d="M17.0017 8.24524C11.8044 8.24524 7.57617 12.4181 7.57617 17.547C7.57617 22.6759 11.8044 26.8488 17.0017 26.8488C22.199 26.8488 26.4272 22.6759 26.4272 17.547C26.4272 12.4181 22.199 8.24524 17.0017 8.24524ZM17.0017 24.3348C13.2091 24.3348 10.1236 21.2898 10.1236 17.547C10.1236 13.8042 13.2091 10.7592 17.0017 10.7592C20.7944 10.7592 23.8798 13.8042 23.8798 17.547C23.8798 21.2898 20.7944 24.3348 17.0017 24.3348Z" fill="#956D84"/>
  </symbol>

  <symbol xmlns="http://www.w3.org/2000/svg" id="photo-arrow" viewBox="0 0 60 60" fill="none">
    <g opacity="0.4">
    <path d="M35.0004 45L38.5254 41.475L27.0754 30L38.5254 18.525L35.0004 15L20.0004 30L35.0004 45Z" fill="#956D84"/>
    </g>
  </symbol>

  <symbol xmlns="http://www.w3.org/2000/svg" id="burger-category-close" viewBox="0 0 14 14" fill="none">
    <path d="M14 1.41L12.59 0L7 5.59L1.41 0L0 1.41L5.59 7L0 12.59L1.41 14L7 8.41L12.59 14L14 12.59L8.41 7L14 1.41Z" fill="white"/>
  </symbol>

  <symbol xmlns="http://www.w3.org/2000/svg" id="review-play" viewBox="0 0 83 83" fill="none">
          <g opacity="0.5" clip-path="url(#clip0_0_4872)">
          <path d="M41.4994 6.91663C22.4093 6.91663 6.91602 22.41 6.91602 41.5C6.91602 60.59 22.4093 76.0833 41.4994 76.0833C60.5894 76.0833 76.0827 60.59 76.0827 41.5C76.0827 22.41 60.5894 6.91663 41.4994 6.91663ZM34.5827 57.0625V25.9375L55.3327 41.5L34.5827 57.0625Z" fill="white"/>
          </g>
          <defs>
          <clipPath id="clip0_0_4872">
          <rect width="83" height="83" fill="white"/>
          </clipPath>
          </defs>
  </symbol>

  <symbol xmlns="http://www.w3.org/2000/svg" id="basket-arrow-left" viewBox="0 0 7 11" fill="none">
    <path d="M6.12636 1L2 5.5L6.12636 10" stroke="#BDBDBD" stroke-width="1.5"/>
  </symbol>

  <symbol xmlns="http://www.w3.org/2000/svg" id="basket-arrow-right" viewBox="0 0 7 11" fill="none">
    <path d="M1.4586 10L5.58496 5.5L1.4586 1" stroke="#BDBDBD" stroke-width="1.5"/>
  </symbol>

  <symbol xmlns="http://www.w3.org/2000/svg" id="basket-card-del" viewBox="0 0 24 24" fill="none">
    <g clip-path="url(#clip0_0_2291)">
    <path d="M6 19C6 20.1 6.9 21 8 21H16C17.1 21 18 20.1 18 19V7H6V19ZM7 8H17V19.5H7V8ZM15.5 4L14.5 3H9.5L8.5 4H5V5.5H19V4H15.5Z" fill="#956D84"/>
    </g>
    <defs>
    <clipPath id="clip0_0_2291">
    <rect width="24" height="24" fill="white"/>
    </clipPath>
    </defs>
  </symbol>

  <symbol xmlns="http://www.w3.org/2000/svg" id="product-card-round-sales" viewBox="0 0 56 56" fill="none">
    <circle cx="28" cy="28" r="27.5" stroke="#E72222" stroke-dasharray="5 5"/>
  </symbol>

  <symbol xmlns="http://www.w3.org/2000/svg" id="product-card-like" viewBox="0 0 33 30" fill="none">
    <path d="M16.5 29.0654C16.0302 29.0654 15.5772 28.9 15.2243 28.5994C13.8911 27.4661 12.6059 26.4011 11.4719 25.4617L11.4661 25.4568C8.14147 22.7024 5.27054 20.3237 3.273 17.9805C1.04006 15.361 0 12.8773 0 10.1641C0 7.52789 0.929785 5.09586 2.6179 3.31565C4.32616 1.51439 6.67013 0.522339 9.21879 0.522339C11.1237 0.522339 12.8682 1.10783 14.4037 2.26241C15.1787 2.8452 15.8811 3.55846 16.5 4.39044C17.1191 3.55846 17.8213 2.8452 18.5965 2.26241C20.132 1.10783 21.8765 0.522339 23.7814 0.522339C26.3298 0.522339 28.674 1.51439 30.3823 3.31565C32.0704 5.09586 32.9999 7.52789 32.9999 10.1641C32.9999 12.8773 31.9601 15.361 29.7272 17.9803C27.7296 20.3237 24.859 22.7022 21.5349 25.4563C20.3989 26.3972 19.1116 27.4639 17.7754 28.5999C17.4227 28.9 16.9695 29.0654 16.5 29.0654ZM9.21879 2.40168C7.21647 2.40168 5.37704 3.17858 4.03889 4.58943C2.68084 6.02158 1.93283 8.00128 1.93283 10.1641C1.93283 12.4461 2.80522 14.4869 4.76121 16.7814C6.65175 18.9993 9.46377 21.329 12.7196 24.0266L12.7257 24.0315C13.8639 24.9746 15.1543 26.0437 16.4972 27.1854C17.8482 26.0415 19.1405 24.9707 20.281 24.0261C23.5367 21.3285 26.3484 18.9993 28.239 16.7814C30.1947 14.4869 31.0671 12.4461 31.0671 10.1641C31.0671 8.00128 30.3191 6.02158 28.9611 4.58943C27.6231 3.17858 25.7835 2.40168 23.7814 2.40168C22.3146 2.40168 20.9679 2.85499 19.7788 3.74889C18.7191 4.54586 17.9809 5.55334 17.5481 6.25827C17.3255 6.62078 16.9338 6.83715 16.5 6.83715C16.0662 6.83715 15.6744 6.62078 15.4519 6.25827C15.0193 5.55334 14.2811 4.54586 13.2212 3.74889C12.0321 2.85499 10.6854 2.40168 9.21879 2.40168Z" fill="#956D84"/>
  </symbol>

  <symbol xmlns="http://www.w3.org/2000/svg" id="product-card-like_active" viewBox="0 0 34 30" fill="none">
    <path d="M17 29.2981C16.5302 29.2981 16.0773 29.1326 15.7243 28.832C14.3912 27.6987 13.1059 26.6337 11.9719 25.6943L11.9662 25.6894C8.64153 22.935 5.77061 20.5563 3.77307 18.2131C1.54012 15.5935 0.500061 13.1098 0.500061 10.3965C0.500061 7.76028 1.42985 5.32822 3.11796 3.54799C4.82622 1.7467 7.17019 0.754639 9.71885 0.754639C11.6237 0.754639 13.3683 1.34014 14.9038 2.49473C15.6787 3.07753 16.3812 3.7908 17 4.62278C17.6191 3.7908 18.3213 3.07753 19.0965 2.49473C20.6321 1.34014 22.3766 0.754639 24.2815 0.754639C26.8299 0.754639 29.1741 1.7467 30.8824 3.54799C32.5705 5.32822 33.5 7.76028 33.5 10.3965C33.5 13.1098 32.4602 15.5935 30.2272 18.2128C28.2297 20.5563 25.359 22.9347 22.0349 25.6889C20.8989 26.6298 19.6116 27.6965 18.2755 28.8325C17.9228 29.1326 17.4696 29.2981 17 29.2981ZM9.00006 21.5204C6.99774 21.5204 7.33822 17.679 6.00006 19.0899C4.64202 20.522 2.00006 14.7149 3.00006 10.8261C3.00006 13.1081 3.30528 14.7194 5.26128 17.0139C7.15181 19.2318 9.96383 21.5616 13.2197 24.2592L13.2258 24.2641C14.364 25.2072 15.6543 26.2764 16.9973 27.418C18.3483 26.2742 19.6406 25.2033 20.7811 24.2587C24.0367 21.5611 26.8485 19.2318 28.739 17.0139C30.6948 14.7194 31.5672 12.6785 31.5672 10.3965C31.5672 8.23367 33.858 13.8533 32.5 12.4211C31.1621 11.0103 32.8844 14.8517 30.8824 14.8517C29.4155 14.8517 29.9281 16.12 28.739 17.0139C27.6793 17.8109 24.4329 22.2738 24.0001 22.9787C23.7775 23.3412 17.4311 27.418 16.9973 27.418C16.5635 27.418 16.7226 28.2023 16.5001 27.8398C17.1093 28.832 14.9019 24.0956 11.5605 25.3533C10.3714 24.4594 10.4666 21.5204 9.00006 21.5204Z" fill="#956D84"/>
  </symbol>

  <symbol xmlns="http://www.w3.org/2000/svg" id="product-card-stars" viewBox="0 0 74 15" fill="none">
    <path d="M7.5 0L9.18386 5.18237H14.6329L10.2245 8.38525L11.9084 13.5676L7.5 10.3647L3.09161 13.5676L4.77547 8.38525L0.367076 5.18237H5.81614L7.5 0Z" fill="#F8E582"/>
    <path d="M22.5 0L24.1839 5.18237H29.6329L25.2245 8.38525L26.9084 13.5676L22.5 10.3647L18.0916 13.5676L19.7755 8.38525L15.3671 5.18237H20.8161L22.5 0Z" fill="#F8E582"/>
    <path d="M37.5 0L39.1839 5.18237H44.6329L40.2245 8.38525L41.9084 13.5676L37.5 10.3647L33.0916 13.5676L34.7755 8.38525L30.3671 5.18237H35.8161L37.5 0Z" fill="#F8E582"/>
    <path d="M51.5 0L53.1839 5.18237H58.6329L54.2245 8.38525L55.9084 13.5676L51.5 10.3647L47.0916 13.5676L48.7755 8.38525L44.3671 5.18237H49.8161L51.5 0Z" fill="#F8E582"/>
    <path d="M66.5 0L68.1839 5.18237H73.6329L69.2245 8.38525L70.9084 13.5676L66.5 10.3647L62.0916 13.5676L63.7755 8.38525L59.3671 5.18237H64.8161L66.5 0Z" fill="#F8E582"/>
  </symbol>

  <symbol xmlns="http://www.w3.org/2000/svg" id="product-card-button-mobile" viewBox="0 0 22 16" fill="none">
    <path d="M6.9949 12.7059H6.99589C6.99672 12.7059 6.99755 12.7058 6.99838 12.7058H18.5303C18.8142 12.7058 19.0638 12.5177 19.1418 12.245L21.686 3.35098C21.7408 3.15924 21.7024 2.9531 21.5823 2.79394C21.4621 2.63479 21.2741 2.54115 21.0745 2.54115H5.52801L5.07333 0.497477C5.00857 0.2068 4.7505 0 4.45235 0H0.636051C0.284732 0 0 0.284391 0 0.635288C0 0.986186 0.284732 1.27058 0.636051 1.27058H3.94219C4.02269 1.63272 6.11801 11.0505 6.2386 11.5924C5.56263 11.8858 5.0884 12.559 5.0884 13.3411C5.0884 14.3919 5.94442 15.2469 6.99656 15.2469H18.5303C18.8816 15.2469 19.1663 14.9625 19.1663 14.6116C19.1663 14.2607 18.8816 13.9763 18.5303 13.9763H6.99656C6.6459 13.9763 6.36051 13.6913 6.36051 13.3411C6.36051 12.9913 6.64491 12.7068 6.9949 12.7059ZM20.2312 3.81173L18.0504 11.4352H7.50672L5.81059 3.81173H20.2312Z" fill="white"/>
  </symbol>

  <symbol xmlns="http://www.w3.org/2000/svg" id="certificate-card-bg-left" viewBox="0 0 448 219" fill="none">
    <path d="M448 1.05371H0C0 1.05371 161.598 -13.8666 219.475 96.863C293.149 237.814 329.263 218.486 329.263 218.486H448V1.05371Z" fill="#956D84"/>
  </symbol>

  <symbol xmlns="http://www.w3.org/2000/svg" id="certificate-card-photo-left" viewBox="0 0 100 100" fill="none">
    <g opacity="0.8" clip-path="url(#clip0_0_38)">
    <path d="M99.3389 34.0269C98.7994 33.2904 98.0053 32.8079 97.1031 32.6687L68.0525 28.1824V3.42076C68.0525 1.5362 66.5191 0.00280762 64.6345 0.00280762H3.41796C1.53339 0.00280762 0 1.5362 0 3.42076V64.676C0 66.5605 1.53339 68.0939 3.41796 68.0939H26.2315L23.3554 86.7195C23.0706 88.5624 24.3685 90.3349 26.2116 90.6192L86.7108 99.9624C88.5123 100.24 90.3299 98.921 90.6102 97.1059L92.1746 86.9757C92.4637 85.104 89.5682 84.6564 89.2793 86.5286C89.0823 87.8042 88.1721 97.2194 87.1579 97.0671L26.6587 87.7239C26.3688 87.6509 26.2327 87.4652 26.2507 87.1667L29.196 68.0941H32.4739L30.0913 83.5218C29.9678 84.3214 30.5159 85.0697 31.3155 85.1931L83.4813 93.2493C84.2176 93.3626 85.0368 92.7745 85.1526 92.0251L93.2231 39.7663C93.3465 38.9667 92.7985 38.2185 91.9989 38.095L68.0523 34.3968V31.1468L96.6559 35.5642C96.9457 35.6372 97.0816 35.823 97.0639 36.1214L90.42 79.1421C90.1389 80.9619 93.0215 81.4917 93.3153 79.5892L99.9592 36.5685C100.099 35.6661 99.8781 34.7636 99.3389 34.0269ZM2.92968 64.676V3.42076C2.92968 3.15143 3.14882 2.93248 3.41796 2.93248H64.6343C64.9035 2.93248 65.1226 3.15143 65.1226 3.42076V64.676C65.1226 64.9453 64.9035 65.1643 64.6343 65.1643H3.41796C3.14882 65.1643 2.92968 64.9453 2.92968 64.676ZM90.1041 40.7667L82.4807 90.1302L33.2102 82.521L35.4383 68.0939H64.6343C66.5189 68.0939 68.0523 66.5605 68.0523 64.676V37.3611L90.1041 40.7667Z" fill="white"/>
    <path d="M60.4191 6.14355H7.63476C6.82578 6.14355 6.16992 6.79922 6.16992 7.60839V14.9306C6.16992 16.8246 9.0996 16.8246 9.0996 14.9306V9.07323H58.9541V59.0219H9.0996V22.7212C9.0996 20.8273 6.16992 20.8273 6.16992 22.7212V60.4867C6.16992 61.2959 6.82578 61.9515 7.63476 61.9515H60.4189C61.2279 61.9515 61.8838 61.2959 61.8838 60.4867V7.60839C61.884 6.79922 61.2281 6.14355 60.4191 6.14355Z" fill="white"/>
    <path d="M34.0258 48.6197C34.217 48.6197 34.4082 48.5824 34.5881 48.5074C34.7525 48.439 38.6592 46.798 42.6314 43.6974C48.0467 39.4705 50.9453 34.5441 51.0141 29.4507C51.0859 24.123 47.0271 18.9333 41.4434 18.9333C38.5217 18.9333 35.8152 20.3878 34.0256 22.7927C32.2361 20.3878 29.5297 18.9333 26.6078 18.9333C21.3305 18.9333 17.0371 23.6423 17.0371 29.4308C17.0371 41.6943 32.8033 48.2394 33.4744 48.5119C33.6514 48.5839 33.8387 48.6197 34.0258 48.6197ZM19.967 29.4308C19.967 25.258 22.9461 21.863 26.608 21.863C29.2123 21.863 31.5895 23.6142 32.6641 26.3244C33.1434 27.533 34.9082 27.533 35.3875 26.3244C36.4619 23.6142 38.8391 21.863 41.4434 21.863C45.4066 21.863 48.135 25.6871 48.0846 29.4111C47.9623 38.4783 36.6766 44.3048 34.0182 45.5517C31.341 44.3255 19.967 38.5761 19.967 29.4308Z" fill="white"/>
    </g>
    <defs>
    <clipPath id="clip0_0_38">
    <rect width="100" height="100" fill="white"/>
    </clipPath>
    </defs>
  </symbol>

  <symbol xmlns="http://www.w3.org/2000/svg" id="certificate-card-photo-center" viewBox="0 0 100 100" fill="none">
    <g opacity="0.8" clip-path="url(#clip0_0_31)">
    <path d="M28.1861 31.1069H30.1352C29.3877 30.0826 28.7564 28.9698 28.2416 27.7905C27.3115 25.6369 26.7967 23.2783 26.7967 20.8035C26.7967 18.6442 27.1898 16.5625 27.915 14.636C28.6625 12.6373 29.7588 10.8157 31.1318 9.24338C31.6633 8.6344 32.5879 8.57327 33.1914 9.10491C33.8004 9.63655 33.8613 10.5555 33.3297 11.1645C32.1836 12.4766 31.2701 13.9938 30.65 15.6547C30.0521 17.2491 29.7254 18.9821 29.7254 20.8035C29.7254 22.8854 30.1518 24.8561 30.9213 26.6334C31.6465 28.3055 32.6818 29.8225 33.9496 31.1069H54.8277C56.0955 29.8225 57.1309 28.3055 57.8561 26.6334C58.6256 24.8561 59.052 22.8854 59.052 20.8035C59.052 16.7563 57.4131 13.0856 54.7557 10.4336C52.1035 7.78186 48.4385 6.13752 44.3857 6.13752C43.2674 6.13752 42.1877 6.2592 41.1635 6.48616C40.1115 6.72424 39.0873 7.07854 38.1184 7.53811C37.3875 7.88694 36.5184 7.57151 36.175 6.84065C35.8262 6.10979 36.1418 5.24065 36.8727 4.89749C38.0187 4.35491 39.2479 3.92854 40.5379 3.64065C41.7893 3.35823 43.0791 3.20862 44.3857 3.20862C49.2469 3.20862 53.6428 5.17971 56.8318 8.36311C58.3766 9.90784 59.6332 11.7405 60.5191 13.7725C61.2443 12.1115 62.2188 10.5832 63.3926 9.24358C63.924 8.6346 64.8486 8.57346 65.4521 9.1051C66.0611 9.63674 66.1221 10.5557 65.5904 11.1647C64.4443 12.4768 63.5309 13.994 62.9053 15.6549C62.3072 17.2492 61.9807 18.9823 61.9807 20.8037C61.9807 22.8856 62.4125 24.8563 63.1822 26.6336C63.9074 28.3057 64.9371 29.8227 66.2105 31.1071H87.083C88.3564 29.8227 89.3918 28.3057 90.117 26.6336C90.8865 24.8563 91.3129 22.8856 91.3129 20.8037C91.3129 16.7565 89.6686 13.0858 87.0166 10.4338C84.3646 7.78206 80.6996 6.13772 76.6469 6.13772C75.523 6.13772 74.4488 6.2594 73.4246 6.48635C72.3727 6.72444 71.3484 7.07874 70.3795 7.53831C69.6486 7.88713 68.7795 7.57171 68.4307 6.84085C68.0875 6.10999 68.4029 5.24085 69.1283 4.89768C70.2799 4.3551 71.509 3.92874 72.7936 3.64085C74.0504 3.35842 75.3404 3.20881 76.6469 3.20881C81.508 3.20881 85.9039 5.17991 89.0873 8.36331C92.2707 11.5469 94.2418 15.9483 94.2418 20.8039C94.2418 23.2787 93.727 25.6373 92.7912 27.7908C92.2818 28.9701 91.6451 30.083 90.9033 31.1073H92.8465C94.8176 31.1073 96.6059 31.9157 97.9014 33.2112C99.1973 34.5063 100 36.2944 100 38.26V76.3674C100 78.3385 99.1973 80.1266 97.9016 81.4223C96.6061 82.7178 94.8178 83.5205 92.8467 83.5205H82.477L78.9891 95.7286C78.8119 96.3596 78.2361 96.7914 77.5828 96.7914H43.4559C42.7639 96.7914 42.1824 96.3098 42.0275 95.6621L38.5617 83.5205H28.1861C26.2207 83.5205 24.4324 82.7178 23.1369 81.4223C21.8414 80.1266 21.0332 78.3383 21.0332 76.3674V67.8799H16.0004V70.7754C16.0004 71.4842 15.4965 72.0823 14.8211 72.2151L1.87129 75.9688C0.946875 76.2403 0 75.5371 0 74.5684V60.6328C0 59.8244 0.658789 59.1657 1.46719 59.1657C2.27539 59.1657 2.92871 59.8244 2.92871 60.6328V72.6248L13.0717 69.6793C13.0717 61.4356 13.0717 53.1916 13.0717 44.9479L2.92871 42.008V53.9946C2.92871 54.8086 2.27539 55.4617 1.46719 55.4617C0.658789 55.4617 0 54.8084 0 53.9946V40.0594C0 39.0241 1.04648 38.3264 1.99316 38.6973L14.943 42.451C15.5686 42.6338 16.0004 43.2039 16.0004 43.8518V46.7475H21.033V38.26C21.033 36.2944 21.8414 34.5063 23.1367 33.2108C24.4326 31.9096 26.2207 31.1069 28.1861 31.1069ZM76.6471 13.5229C78.6568 13.5229 80.4783 14.3367 81.7961 15.6545C83.1137 16.9721 83.9275 18.7936 83.9275 20.8033C83.9275 22.8129 83.1137 24.6346 81.7961 25.9522C80.4783 27.2699 78.6568 28.0838 76.6471 28.0838C74.6373 28.0838 72.8158 27.2699 71.4982 25.9522C70.1805 24.6346 69.3666 22.8131 69.3666 20.8033C69.3666 18.7936 70.1805 16.9721 71.4982 15.6545C72.8158 14.3367 74.6373 13.5229 76.6471 13.5229ZM79.7254 17.7252C78.9393 16.9391 77.8484 16.4518 76.6471 16.4518C75.4457 16.4518 74.3605 16.9389 73.5687 17.7252C72.7826 18.5168 72.2953 19.602 72.2953 20.8035C72.2953 22.0049 72.7824 23.0957 73.5687 23.8817C74.3605 24.6678 75.4455 25.1553 76.6471 25.1553C77.8484 25.1553 78.9393 24.668 79.7254 23.8817C80.5115 23.0957 80.9988 22.0049 80.9988 20.8035C80.9988 19.602 80.5115 18.5168 79.7254 17.7252ZM44.3859 13.5229C46.4012 13.5229 48.2172 14.3367 49.535 15.6545C50.8525 16.9721 51.6664 18.7936 51.6664 20.8033C51.6664 22.8129 50.8525 24.6346 49.535 25.9522C48.2172 27.2699 46.4014 28.0838 44.3859 28.0838C42.3762 28.0838 40.5604 27.2699 39.2426 25.9522C37.9248 24.6346 37.1055 22.8131 37.1055 20.8033C37.1055 18.7936 37.925 16.9721 39.2426 15.6545C40.5604 14.3367 42.3762 13.5229 44.3859 13.5229ZM47.4645 17.7252C46.6783 16.9391 45.593 16.4518 44.3861 16.4518C43.1848 16.4518 42.0996 16.9389 41.3135 17.7252C40.5273 18.5168 40.04 19.602 40.04 20.8035C40.04 22.0049 40.5271 23.0957 41.3135 23.8817C42.0996 24.6678 43.1848 25.1553 44.3861 25.1553C45.5875 25.1553 46.6783 24.668 47.4645 23.8817C48.2506 23.0957 48.7379 22.0049 48.7379 20.8035C48.7377 19.602 48.2504 18.5168 47.4645 17.7252ZM50.0609 61.5686C50.6367 62.1387 50.6367 63.069 50.0609 63.6393C49.4906 64.2094 48.5605 64.2094 47.9902 63.6393L43.7936 59.4424C41.6842 57.333 40.6322 54.5594 40.6322 51.7854C40.6322 49.0117 41.6842 46.2325 43.7936 44.1284C45.8311 42.0909 48.5715 40.967 51.4506 40.967C54.2244 40.967 56.9982 42.019 59.1076 44.1284L60.5195 45.5403L61.9313 44.1284C64.0352 42.019 66.8145 40.967 69.5883 40.967C72.3621 40.967 75.1357 42.019 77.2453 44.1284C79.2771 46.1604 80.4066 48.9063 80.4066 51.7854C80.4066 54.5594 79.3492 57.3385 77.2453 59.4424L61.5549 75.1274C60.9846 75.7032 60.0545 75.7032 59.4842 75.1274L52.6853 68.3286C52.1096 67.7584 52.1096 66.8338 52.6853 66.2578C53.2557 65.6877 54.1857 65.6877 54.7561 66.2578L60.5195 72.0213L75.1746 57.3662C76.6584 55.8825 77.4777 53.8838 77.4777 51.7854C77.4777 49.7592 76.708 47.7328 75.1746 46.1991C73.6356 44.6655 71.6146 43.8959 69.5883 43.8959C67.5619 43.8959 65.5355 44.6655 64.002 46.1991L61.5547 48.6461C60.9844 49.2164 60.0543 49.2164 59.484 48.6461L57.0369 46.1991C55.5531 44.7153 53.5488 43.8903 51.4506 43.8903C49.4297 43.8903 47.4035 44.66 45.8643 46.1991C44.3307 47.7328 43.5611 49.7592 43.5611 51.7854C43.5611 53.8117 44.3307 55.8326 45.8643 57.3717L50.0609 61.5686ZM21.0332 64.9514V49.6817H16.0004V64.9514H21.0332ZM60.5193 27.8239C60.01 28.9918 59.3789 30.0938 58.6426 31.1069H62.3908C61.6598 30.0936 61.0287 28.9918 60.5193 27.8239ZM79.432 83.5207H41.6012L44.5576 93.8629H76.4754L79.432 83.5207ZM92.8467 34.0358C71.2934 34.0358 49.7398 34.0358 28.1861 34.0358C27.0291 34.0358 25.9717 34.5119 25.2076 35.2815C24.4381 36.0453 23.9619 37.1028 23.9619 38.2602V76.3676C23.9619 77.5303 24.4381 78.5823 25.2076 79.352C25.9717 80.1159 27.0291 80.5922 28.1861 80.5922H92.8467C94.0094 80.5922 95.0668 80.1161 95.8309 79.352C96.5951 78.5823 97.0711 77.5303 97.0711 76.3676V38.2602C97.0711 37.103 96.5949 36.0455 95.8309 35.2815C95.067 34.5118 94.0096 34.0358 92.8467 34.0358Z" fill="white"/>
    </g>
    <defs>
    <clipPath id="clip0_0_31">
    <rect width="100" height="100" fill="white"/>
    </clipPath>
    </defs>
  </symbol>

  <symbol xmlns="http://www.w3.org/2000/svg" id="certificate-card-photo-right" viewBox="0 0 100 100" fill="none">
    <g opacity="0.8" clip-path="url(#clip0_0_23)">
    <path d="M98.457 20.1773H90.3149C90.5514 19.8455 90.7658 19.4968 90.9534 19.1313C92.0307 17.0271 92.1764 14.5491 91.3532 12.332L88.8859 5.7005C88.0634 3.48568 86.3354 1.70497 84.1465 0.815377C81.9553 -0.074977 79.4734 -0.00402337 77.3364 1.01069L57.8097 10.2843C56.8446 9.59456 55.6643 9.18715 54.3902 9.18715H45.6102C44.3361 9.18715 43.1551 9.59532 42.19 10.285L22.664 1.00993C20.527 -0.00402327 18.0451 -0.074977 15.8539 0.815377C13.6651 1.70497 11.937 3.48568 11.1145 5.69974L8.64719 12.3328C7.82398 14.5491 7.9697 17.0271 9.04774 19.1313C9.23466 19.4968 9.44981 19.8462 9.68632 20.1773H1.54343C0.691226 20.1773 0 20.8678 0 21.7208V32.8315C0 33.6837 0.691226 34.3749 1.54343 34.3749C2.39564 34.3749 3.08687 33.6837 3.08687 32.8315V23.2634H13.807C13.9786 23.3237 14.1526 23.3794 14.3288 23.4282L27.2859 26.995C24.4065 31.4071 21.8667 36.0481 19.6923 40.8569H3.08687V39.0045C3.08687 38.1523 2.39564 37.4618 1.54343 37.4618C0.691226 37.4618 0 38.1523 0 39.0045V42.4003C0 43.2525 0.691226 43.9438 1.54343 43.9438H7.0473V98.5834C7.0473 99.4364 7.73853 100.127 8.59073 100.127H91.4097C92.2619 100.127 92.9531 99.4364 92.9531 98.5834V89.6219C92.9531 88.7697 92.2619 88.0785 91.4097 88.0785C90.5567 88.0785 89.8662 88.7697 89.8662 89.6219V97.0408H59.2593V44.8929C63.6309 53.1731 66.5904 62.1766 67.9522 71.4791C68.0423 72.0948 68.4939 72.5961 69.0974 72.7502C69.2241 72.783 69.3522 72.7983 69.4797 72.7983C69.9565 72.7983 70.4158 72.577 70.7118 72.1841C72.9304 69.2407 74.9934 66.0897 76.8558 62.7999C79.9747 64.9239 83.0028 67.2921 85.8761 69.8556C86.3605 70.2874 87.064 70.3706 87.6354 70.0623C88.2068 69.7549 88.525 69.1224 88.4304 68.48C87.1982 60.0747 84.901 51.8089 81.6448 43.9438H89.8655V83.4482C89.8655 84.3011 90.5567 84.9916 91.4089 84.9916C92.2619 84.9916 92.9523 84.3011 92.9523 83.4482V43.9438H98.457C99.3092 43.9438 99.9996 43.2525 99.9996 42.4003V21.7208C100 20.8678 99.31 20.1773 98.457 20.1773ZM78.6601 3.79848C80.0373 3.1454 81.5723 3.10115 82.9845 3.67489C84.3944 4.24786 85.4625 5.34878 85.9928 6.77625L88.4594 13.407C88.9904 14.8352 88.8996 16.3687 88.2053 17.7245C87.5118 19.0795 86.3209 20.0484 84.853 20.452L60.2854 27.2155V19.7982C65.8076 16.4168 79.5742 9.44273 83.0005 14.279C83.4926 14.9741 84.4555 15.1396 85.1513 14.6468C85.8471 14.1539 86.0119 13.1903 85.519 12.4953C82.8746 8.76219 77.3021 8.58061 68.9548 11.9566C65.5162 13.3467 62.3416 15.0435 60.2854 16.2207V15.0816C60.2854 14.2554 60.1138 13.468 59.8055 12.7531L78.6601 3.79848ZM45.6102 12.2733H54.3902C55.9389 12.2733 57.1986 13.5336 57.1986 15.0816V27.8388C57.1986 29.3876 55.9389 30.6472 54.3902 30.6472H45.6102C44.0615 30.6472 42.8018 29.3876 42.8018 27.8388V15.0816C42.8018 13.5329 44.0615 12.2733 45.6102 12.2733ZM43.0162 40.8561C44.4925 38.4033 46.0993 36.0259 47.8281 33.7341H52.1708C53.9004 36.0259 55.5071 38.4033 56.9827 40.8561H43.0162ZM11.7951 17.7245C11.1008 16.3687 11.01 14.8352 11.5403 13.4077L14.0084 6.77549C14.5379 5.34878 15.606 4.24786 17.0159 3.67489C18.4274 3.10115 19.9632 3.1454 21.3395 3.79848L40.1949 12.7547C39.8866 13.4688 39.715 14.2554 39.715 15.0824V16.3092C37.6657 15.1297 34.4194 13.3826 30.8931 11.9566C22.5465 8.58061 16.9732 8.76219 14.3288 12.4953C13.836 13.1903 14.0008 14.1539 14.6966 14.6468C15.3924 15.1396 16.3552 14.9748 16.8473 14.279C20.3057 9.39696 34.2988 16.5488 39.715 19.892V27.2155L15.1482 20.4528C13.6796 20.0484 12.4886 19.0795 11.7951 17.7245ZM40.4077 30.6075C41.176 32.0449 42.5218 33.1291 44.1339 33.5464C36.9157 43.6172 31.9467 55.1888 29.6159 67.3516C27.9763 64.956 26.4436 62.4451 25.0405 59.8519C24.8353 59.4719 24.4813 59.1958 24.0624 59.0897C23.6444 58.9837 23.2011 59.0577 22.8402 59.2934C20.2699 60.9696 17.7529 62.8083 15.3222 64.7828C17.8254 51.6434 22.9974 38.974 30.4139 27.8564L40.4077 30.6075ZM10.1342 43.9438H18.3556C15.0994 51.8089 12.8022 60.0739 11.5693 68.48C11.4754 69.1224 11.7928 69.7549 12.3642 70.0623C12.9365 70.3698 13.6391 70.2874 14.1236 69.8556C16.9968 67.2921 20.025 64.9239 23.1446 62.7999C25.007 66.0897 27.0692 69.2399 29.2886 72.1841C29.5846 72.577 30.0439 72.799 30.5208 72.799C30.6482 72.799 30.7763 72.783 30.903 72.7502C31.5065 72.5961 31.9574 72.0948 32.0474 71.4791C33.41 62.1766 36.3695 53.1723 40.7404 44.8921V97.0408H10.1342V43.9438ZM43.8272 97.0408V43.9438H56.1732V97.0408H43.8272ZM77.1602 59.2934C76.7993 59.0577 76.3553 58.9844 75.938 59.0905C75.5199 59.1965 75.1651 59.4727 74.9599 59.8519C73.5568 62.4451 72.0241 64.9567 70.3845 67.3516C68.0537 55.188 63.0847 43.6172 55.8657 33.5471C57.4778 33.1306 58.8244 32.0457 59.5927 30.6075L69.5888 27.8556C77.0038 38.9755 82.1758 51.6449 84.679 64.7828C82.2475 62.8083 79.7306 60.9696 77.1602 59.2934ZM96.9135 40.8569H80.3089C78.1345 36.0481 75.5946 31.4071 72.7161 26.995L85.6716 23.4282C85.8478 23.3794 86.0218 23.3237 86.1934 23.2634H96.9135V40.8569Z" fill="white"/>
    </g>
    <defs>
    <clipPath id="clip0_0_23">
    <rect width="100" height="100" fill="white"/>
    </clipPath>
    </defs>
  </symbol>

  <symbol xmlns="http://www.w3.org/2000/svg" id="certificate-card-photo-left-mobile" viewBox="0 0 46 46" fill="none">
    <g opacity="0.8" clip-path="url(#clip0_0_5386)">
    <path d="M45.6959 15.6529C45.4477 15.3141 45.0824 15.0922 44.6674 15.0281L31.3041 12.9644V1.57409C31.3041 0.707192 30.5988 0.00183105 29.7319 0.00183105H1.57226C0.705361 0.00183105 0 0.707192 0 1.57409V29.7515C0 30.6184 0.705361 31.3238 1.57226 31.3238H12.0665L10.7435 39.8915C10.6125 40.7393 11.2095 41.5546 12.0573 41.6854L39.887 45.9832C40.7157 46.1112 41.5518 45.5042 41.6807 44.6693L42.4003 40.0094C42.5333 39.1484 41.2014 38.9425 41.0685 39.8037C40.9778 40.3905 40.5592 44.7215 40.0926 44.6514L12.263 40.3536C12.1297 40.32 12.067 40.2345 12.0753 40.0972L13.4302 31.3238H14.938L13.842 38.4206C13.7852 38.7884 14.0373 39.1326 14.4051 39.1894L38.4014 42.8952C38.7401 42.9473 39.1169 42.6768 39.1702 42.3321L42.8826 18.293C42.9394 17.9252 42.6873 17.581 42.3195 17.5243L31.304 15.8231V14.3281L44.4617 16.3601C44.595 16.3937 44.6576 16.4791 44.6494 16.6164L41.5932 36.4059C41.4639 37.243 42.7899 37.4867 42.925 36.6116L45.9812 16.822C46.0454 16.407 45.9439 15.9918 45.6959 15.6529ZM1.34765 29.7515V1.57409C1.34765 1.4502 1.44846 1.34948 1.57226 1.34948H29.7318C29.8556 1.34948 29.9564 1.4502 29.9564 1.57409V29.7515C29.9564 29.8754 29.8556 29.9761 29.7318 29.9761H1.57226C1.44846 29.9761 1.34765 29.8754 1.34765 29.7515ZM41.4479 18.7532L37.9411 41.4604L15.2767 37.9602L16.3016 31.3238H29.7318C30.5987 31.3238 31.304 30.6184 31.304 29.7515V17.1866L41.4479 18.7532Z" fill="#956D84"/>
    <path d="M27.7925 2.82605H3.51172C3.13958 2.82605 2.83789 3.12765 2.83789 3.49988V6.8681C2.83789 7.73932 4.18554 7.73932 4.18554 6.8681V4.1737H27.1186V27.1501H4.18554V10.4518C4.18554 9.58057 2.83789 9.58057 2.83789 10.4518V27.8239C2.83789 28.1961 3.13958 28.4977 3.51172 28.4977H27.7924C28.1646 28.4977 28.4663 28.1961 28.4663 27.8239V3.49988C28.4663 3.12765 28.1647 2.82605 27.7925 2.82605Z" fill="#956D84"/>
    <path d="M15.6527 22.3651C15.7406 22.3651 15.8286 22.3479 15.9113 22.3134C15.987 22.282 17.784 21.5271 19.6113 20.1008C22.1023 18.1564 23.4357 15.8903 23.4673 13.5473C23.5003 11.0966 21.6333 8.70935 19.0648 8.70935C17.7208 8.70935 16.4758 9.37842 15.6526 10.4847C14.8294 9.37842 13.5845 8.70935 12.2404 8.70935C9.81283 8.70935 7.83789 10.8755 7.83789 13.5382C7.83789 19.1794 15.0903 22.1901 15.399 22.3155C15.4804 22.3486 15.5666 22.3651 15.6527 22.3651ZM9.18564 13.5382C9.18564 11.6187 10.556 10.057 12.2405 10.057C13.4385 10.057 14.532 10.8625 15.0263 12.1092C15.2468 12.6652 16.0586 12.6652 16.2791 12.1092C16.7733 10.8625 17.8668 10.057 19.0648 10.057C20.8879 10.057 22.1429 11.8161 22.1197 13.5291C22.0635 17.7 16.872 20.3802 15.6492 20.9538C14.4177 20.3898 9.18564 17.745 9.18564 13.5382Z" fill="#956D84"/>
    </g>
    <defs>
    <clipPath id="clip0_0_5386">
    <rect width="46" height="46" fill="white"/>
    </clipPath>
    </defs>
  </symbol>

  <symbol xmlns="http://www.w3.org/2000/svg" id="certificate-card-photo-center-mobile" viewBox="0 0 46 46" fill="none">
    <path d="M12.9656 13.8332H13.8622C13.5183 13.3621 13.228 12.8501 12.9911 12.3076C12.5633 11.317 12.3265 10.2321 12.3265 9.09367C12.3265 8.10035 12.5073 7.1428 12.8409 6.25658C13.1848 5.33721 13.689 4.49924 14.3206 3.77599C14.5651 3.49586 14.9904 3.46774 15.268 3.71229C15.5482 3.95685 15.5762 4.37956 15.3317 4.6597C14.8045 5.26327 14.3843 5.96117 14.099 6.7252C13.824 7.4586 13.6737 8.25578 13.6737 9.09367C13.6737 10.0513 13.8698 10.9578 14.2238 11.7754C14.5574 12.5446 15.0336 13.2424 15.6168 13.8332H25.2208C25.8039 13.2424 26.2802 12.5446 26.6138 11.7754C26.9678 10.9578 27.1639 10.0513 27.1639 9.09367C27.1639 7.23192 26.41 5.5434 25.1876 4.3235C23.9676 3.10369 22.2817 2.3473 20.4174 2.3473C19.903 2.3473 19.4063 2.40327 18.9352 2.50767C18.4513 2.61719 17.9802 2.78016 17.5344 2.99157C17.1982 3.15203 16.7984 3.00693 16.6405 2.67073C16.48 2.33454 16.6252 1.93473 16.9614 1.77688C17.4886 1.52729 18.054 1.33116 18.6474 1.19873C19.2231 1.06882 19.8164 1 20.4174 1C22.6536 1 24.6757 1.9067 26.1426 3.37107C26.8532 4.08164 27.4313 4.92464 27.8388 5.85938C28.1724 5.09535 28.6206 4.39232 29.1606 3.77608C29.4051 3.49595 29.8304 3.46783 30.108 3.71238C30.3881 3.95694 30.4162 4.37965 30.1716 4.65979C29.6444 5.26336 29.2242 5.96126 28.9364 6.72529C28.6613 7.45869 28.5111 8.25587 28.5111 9.09375C28.5111 10.0514 28.7098 10.9579 29.0638 11.7755C29.3974 12.5447 29.8711 13.2425 30.4569 13.8333H40.0582C40.644 13.2425 41.1202 12.5447 41.4538 11.7755C41.8078 10.9579 42.0039 10.0514 42.0039 9.09375C42.0039 7.23201 41.2475 5.54349 40.0276 4.32359C38.8077 3.10378 37.1218 2.34739 35.2576 2.34739C34.7406 2.34739 34.2465 2.40336 33.7753 2.50776C33.2914 2.61728 32.8203 2.78025 32.3746 2.99166C32.0384 3.15212 31.6386 3.00702 31.4781 2.67082C31.3202 2.33463 31.4653 1.93482 31.799 1.77697C32.3287 1.52738 32.8941 1.33125 33.485 1.19882C34.0632 1.06891 34.6566 1.00009 35.2576 1.00009C37.4937 1.00009 39.5158 1.90679 40.9802 3.37116C42.4445 4.83561 43.3512 6.86024 43.3512 9.09384C43.3512 10.2323 43.1144 11.3172 42.684 12.3078C42.4496 12.8503 42.1568 13.3622 41.8155 13.8334H42.7094C43.6161 13.8334 44.4387 14.2052 45.0346 14.8012C45.6307 15.3969 46 16.2194 46 17.1236V34.653C46 35.5598 45.6307 36.3823 45.0347 36.9783C44.4388 37.5742 43.6162 37.9435 42.7095 37.9435H37.9394L36.335 43.5592C36.2535 43.8495 35.9886 44.0481 35.6881 44.0481H19.9897C19.6714 44.0481 19.4039 43.8265 19.3327 43.5286L17.7384 37.9435H12.9656C12.0615 37.9435 11.2389 37.5742 10.643 36.9783C10.047 36.3823 9.67527 35.5597 9.67527 34.653V30.7488H7.36018V32.0807C7.36018 32.4068 7.12838 32.6819 6.8177 32.743L0.860793 34.4697C0.435563 34.5946 0 34.2711 0 33.8255V27.4151C0 27.0433 0.303043 26.7402 0.674906 26.7402C1.04668 26.7402 1.34721 27.0433 1.34721 27.4151V32.9315L6.01297 31.5765C6.01297 27.7844 6.01297 23.9922 6.01297 20.2001L1.34721 18.8477V24.3615C1.34721 24.736 1.04668 25.0364 0.674906 25.0364C0.303043 25.0364 0 24.7359 0 24.3615V17.9514C0 17.4751 0.481383 17.1542 0.916855 17.3248L6.87377 19.0515C7.16154 19.1356 7.36018 19.3978 7.36018 19.6959V21.0279H9.67518V17.1236C9.67518 16.2194 10.047 15.3969 10.6429 14.801C11.239 14.2025 12.0615 13.8332 12.9656 13.8332ZM35.2577 5.74456C36.1821 5.74456 37.02 6.11894 37.6262 6.72511C38.2323 7.3312 38.6067 8.16908 38.6067 9.09358C38.6067 10.018 38.2323 10.856 37.6262 11.462C37.02 12.0682 36.1821 12.4426 35.2577 12.4426C34.3332 12.4426 33.4953 12.0682 32.8892 11.462C32.283 10.856 31.9086 10.0181 31.9086 9.09358C31.9086 8.16908 32.283 7.3312 32.8892 6.72511C33.4953 6.11894 34.3332 5.74456 35.2577 5.74456ZM36.6737 7.67764C36.3121 7.31602 35.8103 7.09186 35.2577 7.09186C34.705 7.09186 34.2059 7.31593 33.8416 7.67764C33.48 8.04177 33.2558 8.54095 33.2558 9.09367C33.2558 9.64629 33.4799 10.1481 33.8416 10.5096C34.2059 10.8712 34.7049 11.0955 35.2577 11.0955C35.8103 11.0955 36.3121 10.8713 36.6737 10.5096C37.0353 10.1481 37.2595 9.64629 37.2595 9.09367C37.2595 8.54095 37.0353 8.04177 36.6737 7.67764ZM20.4175 5.74456C21.3445 5.74456 22.1799 6.11894 22.7861 6.72511C23.3922 7.3312 23.7665 8.16908 23.7665 9.09358C23.7665 10.018 23.3922 10.856 22.7861 11.462C22.1799 12.0682 21.3446 12.4426 20.4175 12.4426C19.493 12.4426 18.6578 12.0682 18.0516 11.462C17.4454 10.856 17.0685 10.0181 17.0685 9.09358C17.0685 8.16908 17.4455 7.3312 18.0516 6.72511C18.6578 6.11894 19.493 5.74456 20.4175 5.74456ZM21.8336 7.67764C21.472 7.31602 20.9728 7.09186 20.4176 7.09186C19.865 7.09186 19.3658 7.31593 19.0042 7.67764C18.6426 8.04177 18.4184 8.54095 18.4184 9.09367C18.4184 9.64629 18.6425 10.1481 19.0042 10.5096C19.3658 10.8712 19.865 11.0955 20.4176 11.0955C20.9703 11.0955 21.472 10.8713 21.8336 10.5096C22.1953 10.1481 22.4194 9.64629 22.4194 9.09367C22.4193 8.54095 22.1952 8.04177 21.8336 7.67764ZM23.028 27.8456C23.2929 28.1078 23.2929 28.5358 23.028 28.7981C22.7657 29.0604 22.3379 29.0604 22.0755 28.7981L20.145 26.8675C19.1747 25.8972 18.6908 24.6214 18.6908 23.3453C18.6908 22.0694 19.1747 20.791 20.145 19.8231C21.0823 18.8858 22.3429 18.3689 23.6673 18.3689C24.9432 18.3689 26.2192 18.8528 27.1895 19.8231L27.839 20.4726L28.4884 19.8231C29.4562 18.8528 30.7346 18.3689 32.0106 18.3689C33.2866 18.3689 34.5624 18.8528 35.5328 19.8231C36.4675 20.7578 36.9871 22.0209 36.9871 23.3453C36.9871 24.6214 36.5006 25.8997 35.5328 26.8675L28.3152 34.0826C28.0529 34.3475 27.6251 34.3475 27.3627 34.0826L24.2353 30.9552C23.9704 30.6929 23.9704 30.2676 24.2353 30.0026C24.4976 29.7404 24.9254 29.7404 25.1878 30.0026L27.839 32.6538L34.5803 25.9125C35.2629 25.23 35.6398 24.3106 35.6398 23.3453C35.6398 22.4133 35.2857 21.4811 34.5803 20.7756C33.8724 20.0701 32.9427 19.7162 32.0106 19.7162C31.0785 19.7162 30.1464 20.0701 29.4409 20.7756L28.3152 21.9013C28.0528 22.1636 27.625 22.1636 27.3626 21.9013L26.237 20.7756C25.5544 20.0931 24.6325 19.7136 23.6673 19.7136C22.7377 19.7136 21.8056 20.0676 21.0976 20.7756C20.3921 21.4811 20.0381 22.4133 20.0381 23.3453C20.0381 24.2774 20.3921 25.2071 21.0976 25.915L23.028 27.8456ZM9.67527 29.4017V22.3776H7.36018V29.4017H9.67527ZM27.8389 12.323C27.6046 12.8603 27.3143 13.3672 26.9756 13.8332H28.6998C28.3635 13.3671 28.0732 12.8603 27.8389 12.323ZM36.5387 37.9436H19.1365L20.4965 42.701H35.1787L36.5387 37.9436ZM42.7095 15.1805C32.7949 15.1805 22.8803 15.1805 12.9656 15.1805C12.4334 15.1805 11.947 15.3995 11.5955 15.7535C11.2415 16.1049 11.0225 16.5913 11.0225 17.1237V34.6531C11.0225 35.188 11.2415 35.6719 11.5955 36.026C11.947 36.3773 12.4334 36.5965 12.9656 36.5965H42.7095C43.2443 36.5965 43.7307 36.3774 44.0822 36.026C44.4338 35.6719 44.6527 35.188 44.6527 34.6531V17.1237C44.6527 16.5914 44.4337 16.105 44.0822 15.7535C43.7308 15.3994 43.2444 15.1805 42.7095 15.1805Z" fill="#AA8A9D"/>
  </symbol>

  <symbol xmlns="http://www.w3.org/2000/svg" id="certificate-card-photo-right-mobile" viewBox="0 0 44 43" fill="none">
    <g clip-path="url(#clip0_0_5396)">
    <path d="M42.4779 8.52708H39.037C39.1369 8.38682 39.2275 8.23947 39.3069 8.08503C39.7621 7.19578 39.8237 6.14854 39.4758 5.21157L38.4331 2.40904C38.0855 1.47304 37.3552 0.720494 36.4302 0.344545C35.5042 -0.031726 34.4553 -0.00174041 33.5522 0.427086L25.3 4.34618C24.8921 4.0547 24.3934 3.88253 23.8549 3.88253H20.1444C19.606 3.88253 19.1069 4.05503 18.699 4.3465L10.4471 0.426764C9.54402 -0.00174037 8.49516 -0.031726 7.56916 0.344545C6.64412 0.720494 5.91382 1.47304 5.56625 2.40872L4.52352 5.21189C4.17562 6.14854 4.2372 7.19578 4.69279 8.08503C4.77179 8.23947 4.86271 8.38714 4.96266 8.52708H1.52141C1.16126 8.52708 0.869141 8.81887 0.869141 9.17934V13.8748C0.869141 14.235 1.16126 14.5271 1.52141 14.5271C1.88156 14.5271 2.17368 14.235 2.17368 13.8748V9.83129H6.70409C6.77663 9.85676 6.85015 9.8803 6.92463 9.90093L12.4004 11.4083C11.1836 13.2729 10.1102 15.2342 9.19128 17.2664H2.17368V16.4836C2.17368 16.1234 1.88156 15.8316 1.52141 15.8316C1.16126 15.8316 0.869141 16.1234 0.869141 16.4836V17.9187C0.869141 18.2789 1.16126 18.571 1.52141 18.571H3.84739V41.6622C3.84739 42.0226 4.13951 42.3144 4.49966 42.3144H39.4997C39.8598 42.3144 40.1519 42.0226 40.1519 41.6622V37.8749C40.1519 37.5148 39.8598 37.2227 39.4997 37.2227C39.1392 37.2227 38.8474 37.5148 38.8474 37.8749V41.0102H25.9126V18.9721C27.7601 22.4714 29.0108 26.2763 29.5863 30.2077C29.6244 30.4679 29.8153 30.6797 30.0703 30.7448C30.1238 30.7587 30.178 30.7651 30.2318 30.7651C30.4334 30.7651 30.6275 30.6716 30.7526 30.5056C31.6902 29.2617 32.562 27.93 33.3491 26.5397C34.6671 27.4374 35.9468 28.4382 37.1611 29.5215C37.3658 29.704 37.6631 29.7392 37.9046 29.6089C38.1461 29.479 38.2806 29.2117 38.2406 28.9402C37.7199 25.388 36.749 21.8949 35.3729 18.571H38.8471V35.2659C38.8471 35.6263 39.1392 35.9181 39.4993 35.9181C39.8598 35.9181 40.1516 35.6263 40.1516 35.2659V18.571H42.4779C42.8381 18.571 43.1299 18.2789 43.1299 17.9187V9.17934C43.1302 8.81887 42.8384 8.52708 42.4779 8.52708ZM34.1116 1.60523C34.6936 1.32923 35.3423 1.31053 35.9391 1.553C36.535 1.79514 36.9864 2.2604 37.2104 2.86366L38.2528 5.66587C38.4773 6.26945 38.4389 6.91752 38.1455 7.49048C37.8524 8.0631 37.3491 8.47259 36.7287 8.64315L26.3463 11.5015V8.36683C28.68 6.93784 34.4979 3.99054 35.9459 6.0344C36.1539 6.32813 36.5607 6.3981 36.8548 6.18981C37.1489 5.98152 37.2185 5.5743 37.0102 5.28057C35.8927 3.70294 33.5377 3.6262 30.01 5.05293C28.5568 5.64039 27.2152 6.35747 26.3463 6.85497V6.37359C26.3463 6.0244 26.2737 5.69166 26.1435 5.38955L34.1116 1.60523ZM20.1444 5.18674H23.8549C24.5094 5.18674 25.0418 5.71939 25.0418 6.37359V11.7649C25.0418 12.4194 24.5094 12.9517 23.8549 12.9517H20.1444C19.4899 12.9517 18.9576 12.4194 18.9576 11.7649V6.37359C18.9576 5.71907 19.4899 5.18674 20.1444 5.18674ZM19.0482 17.2661C19.6721 16.2295 20.3511 15.2248 21.0817 14.2563H22.917C23.6479 15.2248 24.3269 16.2295 24.9505 17.2661H19.0482ZM5.85385 7.49048C5.56044 6.91752 5.52207 6.26945 5.74616 5.66619L6.78921 2.86334C7.01297 2.2604 7.46437 1.79514 8.06021 1.553C8.6567 1.31053 9.30574 1.32923 9.8874 1.60523L17.8558 5.39019C17.7256 5.69198 17.653 6.0244 17.653 6.37391V6.89237C16.787 6.3939 15.4151 5.65555 13.9248 5.05293C10.3975 3.6262 8.04216 3.70294 6.92463 5.28057C6.71634 5.5743 6.78598 5.98152 7.08004 6.18981C7.37409 6.3981 7.78099 6.32845 7.98896 6.0344C9.45051 3.97119 15.3641 6.99362 17.653 8.40649V11.5015L7.27091 8.64347C6.65024 8.47259 6.14693 8.0631 5.85385 7.49048ZM17.9458 12.935C18.2705 13.5424 18.8392 14.0006 19.5205 14.1769C16.4701 18.433 14.3701 23.3232 13.3851 28.4633C12.6922 27.4509 12.0444 26.3898 11.4515 25.2939C11.3648 25.1333 11.2152 25.0166 11.0381 24.9718C10.8615 24.927 10.6741 24.9582 10.5216 25.0579C9.43536 25.7662 8.37168 26.5433 7.34443 27.3777C8.40231 21.8249 10.588 16.4707 13.7223 11.7723L17.9458 12.935ZM5.15193 18.571H8.62639C7.25028 21.8949 6.27945 25.3877 5.75841 28.9402C5.71875 29.2117 5.85288 29.479 6.09438 29.6089C6.3362 29.7388 6.63315 29.704 6.83789 29.5215C8.05215 28.4382 9.33186 27.4374 10.6503 26.5397C11.4373 27.93 12.3088 29.2613 13.2468 30.5056C13.3719 30.6716 13.566 30.7655 13.7675 30.7655C13.8213 30.7655 13.8755 30.7587 13.929 30.7448C14.1841 30.6797 14.3746 30.4679 14.4127 30.2077C14.9885 26.2763 16.2392 22.471 18.0864 18.9717V41.0102H5.15193V18.571ZM19.3909 41.0102V18.571H24.6084V41.0102H19.3909ZM33.4777 25.0579C33.3252 24.9582 33.1376 24.9273 32.9612 24.9721C32.7845 25.0169 32.6346 25.1336 32.5478 25.2939C31.9549 26.3898 31.3071 27.4512 30.6142 28.4633C29.6292 23.3229 27.5293 18.433 24.4785 14.1773C25.1598 14.0012 25.7288 13.5427 26.0535 12.935L30.278 11.772C33.4116 16.4713 35.5973 21.8255 36.6552 27.3777C35.6277 26.5433 34.564 25.7662 33.4777 25.0579ZM41.8256 17.2664H34.8084C33.8895 15.2342 32.8161 13.2729 31.5996 11.4083L37.0747 9.90093C37.1492 9.8803 37.2227 9.85676 37.2952 9.83129H41.8256V17.2664Z" fill="#956D84"/>
    </g>
    <defs>
    <clipPath id="clip0_0_5396">
    <rect width="42.2609" height="42.2609" fill="white" transform="translate(0.869141)"/>
    </clipPath>
    </defs>
  </symbol>

  <symbol xmlns="http://www.w3.org/2000/svg" id="forum-arrow-left" viewBox="0 0 15 15" fill="none">
    <g opacity="0.4" clip-path="url(#clip0_0_516)">
    <path d="M6.25039 3.75L5.36914 4.63125L8.23164 7.5L5.36914 10.3688L6.25039 11.25L10.0004 7.5L6.25039 3.75Z" fill="#956D84"/>
    </g>
    <defs>
    <clipPath id="clip0_0_516">
    <rect width="15" height="15" fill="white"/>
    </clipPath>
    </defs>
  </symbol>

  <symbol xmlns="http://www.w3.org/2000/svg" id="forum-arrow-center" viewBox="0 0 15 15" fill="none">
    <g opacity="0.7" clip-path="url(#clip0_0_519)">
    <path d="M6.25039 3.75L5.36914 4.63125L8.23164 7.5L5.36914 10.3688L6.25039 11.25L10.0004 7.5L6.25039 3.75Z" fill="#956D84"/>
    </g>
    <defs>
    <clipPath id="clip0_0_519">
    <rect width="15" height="15" fill="white"/>
    </clipPath>
    </defs>
  </symbol>

  <symbol xmlns="http://www.w3.org/2000/svg" id="forum-arrow-right" viewBox="0 0 15 15" fill="none">
    <g opacity="0.9" clip-path="url(#clip0_0_522)">
    <path d="M6.25039 3.75L5.36914 4.63125L8.23164 7.5L5.36914 10.3688L6.25039 11.25L10.0004 7.5L6.25039 3.75Z" fill="#956D84"/>
    </g>
    <defs>
    <clipPath id="clip0_0_522">
    <rect width="15" height="15" fill="white"/>
    </clipPath>
    </defs>
  </symbol>

  <symbol xmlns="http://www.w3.org/2000/svg" id="sviper-prev" viewBox="0 0 16 28" fill="none">
    <path d="M0.574136 12.531L12.6137 0.826523C13.3796 0.0815887 14.6213 0.0815887 15.3868 0.826523C16.1523 1.57079 16.1523 2.77793 15.3868 3.52214L4.73361 13.8789L15.3865 24.2352C16.152 24.9798 16.152 26.1868 15.3865 26.9311C14.6209 27.6756 13.3793 27.6756 12.6134 26.9311L0.573826 15.2264C0.19105 14.854 -0.00012207 14.3666 -0.00012207 13.8789C-0.00012207 13.391 0.191422 12.9032 0.574136 12.531Z" fill="#956D84"/>
  </symbol>

  <symbol xmlns="http://www.w3.org/2000/svg" id="sviper-next" viewBox="0 0 16 28" fill="none">
    <path d="M15.3868 12.531L3.34723 0.826523C2.58137 0.0815887 1.33965 0.0815887 0.574164 0.826523C-0.191388 1.57079 -0.191388 2.77793 0.574164 3.52214L11.2273 13.8789L0.574474 24.2352C-0.191078 24.9798 -0.191078 26.1868 0.574474 26.9311C1.34003 27.6756 2.58168 27.6756 3.34754 26.9311L15.3871 15.2264C15.7699 14.854 15.9611 14.3666 15.9611 13.8789C15.9611 13.391 15.7695 12.9032 15.3868 12.531Z" fill="#956D84"/>
  </symbol>

  <symbol xmlns="http://www.w3.org/2000/svg" id="order-arrow" viewBox="0 0 10 5" fill="none">
    <path d="M5 4.71423L0.669873 0.428519L9.33013 0.42852L5 4.71423Z" fill="#333333"/>
  </symbol>

  <symbol xmlns="http://www.w3.org/2000/svg" id="order-data" viewBox="0 0 24 24" fill="none">
    <g clip-path="url(#clip0_0_2648)">
    <path d="M20 3H19V1H17V3H7V1H5V3H4C2.9 3 2 3.9 2 5V21C2 22.1 2.9 23 4 23H20C21.1 23 22 22.1 22 21V5C22 3.9 21.1 3 20 3ZM20 21H4V8H20V21Z" fill="#956D84"/>
    </g>
    <defs>
    <clipPath id="clip0_0_2648">
    <rect width="24" height="24" fill="white"/>
    </clipPath>
    </defs>
  </symbol>

  <symbol xmlns="http://www.w3.org/2000/svg" id="header-dropdown-arrow" viewBox="0 0 7 3" fill="none">
    <path d="M3.5 3L0.468911 -5.70966e-07L6.53109 -4.09935e-08L3.5 3Z" fill="white"/>
  </symbol>

  <symbol xmlns="http://www.w3.org/2000/svg" id="header-top-like" viewBox="0 0 18 16" fill="none">
    <path d="M9 16C8.74374 16 8.49669 15.9072 8.30415 15.7388C7.577 15.1035 6.87593 14.5065 6.2574 13.9799L6.25424 13.9772C4.44081 12.4332 2.87485 11.0998 1.78528 9.7863C0.567307 8.31791 0 6.92567 0 5.40473C0 3.92701 0.507156 2.56372 1.42795 1.56581C2.35973 0.556101 3.63826 0 5.02844 0C6.06747 0 7.01903 0.328199 7.8566 0.975406C8.2793 1.3021 8.66245 1.70192 9 2.16828C9.33769 1.70192 9.7207 1.3021 10.1435 0.975406C10.9811 0.328199 11.9327 0 12.9717 0C14.3617 0 15.6404 0.556101 16.5722 1.56581C17.493 2.56372 18 3.92701 18 5.40473C18 6.92567 17.4328 8.31791 16.2149 9.78616C15.1253 11.0998 13.5595 12.433 11.7463 13.9769C11.1267 14.5043 10.4245 15.1023 9.69571 15.739C9.50331 15.9072 9.25612 16 9 16ZM5.02844 1.05348C3.93626 1.05348 2.93294 1.48897 2.20303 2.27983C1.46228 3.08263 1.05428 4.19236 1.05428 5.40473C1.05428 6.68391 1.53012 7.82794 2.59703 9.11412C3.62823 10.3574 5.16206 11.6633 6.938 13.1755L6.9413 13.1782C7.56216 13.7069 8.26598 14.3062 8.99849 14.9461C9.7354 14.3049 10.4403 13.7047 11.0624 13.1752C12.8382 11.663 14.3719 10.3574 15.4031 9.11412C16.4699 7.82794 16.9457 6.68391 16.9457 5.40473C16.9457 4.19236 16.5377 3.08263 15.797 2.27983C15.0672 1.48897 14.0637 1.05348 12.9717 1.05348C12.1716 1.05348 11.437 1.30758 10.7884 1.80866C10.2104 2.25541 9.80777 2.82016 9.5717 3.21531C9.4503 3.41852 9.23662 3.53981 9 3.53981C8.76338 3.53981 8.5497 3.41852 8.4283 3.21531C8.19237 2.82016 7.78972 2.25541 7.21156 1.80866C6.56296 1.30758 5.82838 1.05348 5.02844 1.05348Z" fill="#956D84"/>
  </symbol>

  <symbol xmlns="http://www.w3.org/2000/svg" id="header-top-car" viewBox="0 0 22 16" fill="none">
    <path d="M21.7205 6.81411L19.1947 3.96958C18.9854 3.73394 18.6852 3.5994 18.37 3.60005H15.0333V1.40005C15.0327 0.792814 14.5406 0.300693 13.9333 0.300049H1.1C0.492766 0.300693 0.000644567 0.792814 3.58087e-08 1.40005V10.9334C-4.29329e-05 11.0306 0.038586 11.1239 0.107379 11.1927C0.176129 11.2615 0.269414 11.3001 0.366695 11.3001H0.733348V12.4001C0.733992 13.0073 1.22611 13.4994 1.83335 13.5001H2.59596C2.77668 14.7625 3.85804 15.7001 5.13335 15.7001C6.40866 15.7001 7.49001 14.7625 7.67074 13.5001H14.3293C14.5101 14.7625 15.5914 15.7001 16.8667 15.7001C18.1421 15.7001 19.2234 14.7625 19.4041 13.5001H20.9C21.5072 13.4994 21.9994 13.0073 22 12.4001V7.54531C21.9997 7.27551 21.9003 7.01529 21.7205 6.81411ZM0.733348 10.5667V1.40005C0.733562 1.19762 0.897574 1.03357 1.1 1.0334H13.9333C14.1358 1.03361 14.2998 1.19762 14.3 1.40005V10.5667H0.733348ZM2.59596 12.7667H1.83335C1.63092 12.7665 1.46687 12.6025 1.4667 12.4V11.3H3.34056C2.93777 11.6937 2.67605 12.2092 2.59596 12.7667ZM5.13335 14.9667C4.12083 14.9667 3.3 14.1459 3.3 13.1334C3.3 12.1208 4.12083 11.3 5.13335 11.3C6.14586 11.3 6.9667 12.1209 6.9667 13.1334C6.96549 14.1454 6.14535 14.9655 5.13335 14.9667ZM8.8 12.7667H7.6707C7.5906 12.2092 7.32892 11.6937 6.92613 11.3H8.8V12.7667ZM12.1 12.7667H9.53335V11.3H12.1V12.7667ZM14.3293 12.7667H12.8333V11.3H15.0739C14.6711 11.6937 14.4094 12.2092 14.3293 12.7667ZM16.8667 14.9667C15.8541 14.9667 15.0333 14.1459 15.0333 13.1334C15.0333 12.1208 15.8541 11.3 16.8667 11.3C17.8792 11.3 18.7 12.1208 18.7 13.1334C18.6988 14.1454 17.8787 14.9655 16.8667 14.9667ZM21.2667 12.4C21.2664 12.6025 21.1024 12.7665 20.9 12.7667H19.404C19.2212 11.5054 18.1411 10.569 16.8667 10.5667H15.0333V4.3334H16.5V8.00005C16.5006 8.60728 16.9928 9.0994 17.6 9.10005H21.2667V12.4ZM21.2667 8.3667H17.6C17.3976 8.36649 17.2335 8.20247 17.2333 8.00005V4.3334H18.37C18.4753 4.3328 18.5758 4.3774 18.6459 4.45586L21.1727 7.30146C21.2328 7.36849 21.2663 7.45525 21.2667 7.54531V8.3667H21.2667Z" fill="#956D84"/>
  </symbol>

  <symbol xmlns="http://www.w3.org/2000/svg" id="header-search" viewBox="0 0 19 19" fill="none">
    <path d="M18.0071 17.8222L12.744 12.5591C13.7423 11.3267 14.3432 9.75999 14.3432 8.05417C14.3432 4.09977 11.126 0.882568 7.17156 0.882568C3.21716 0.882568 0 4.09977 0 8.05417C0 12.0086 3.2172 15.2258 7.1716 15.2258C8.87742 15.2258 10.4442 14.6248 11.6766 13.6266L16.9396 18.8897C17.0871 19.0371 17.326 19.0371 17.4735 18.8897L18.0071 18.356C18.1545 18.2086 18.1545 17.9696 18.0071 17.8222ZM7.1716 13.7159C4.04952 13.7159 1.50982 11.1762 1.50982 8.05417C1.50982 4.93208 4.04952 2.39239 7.1716 2.39239C10.2937 2.39239 12.8334 4.93208 12.8334 8.05417C12.8334 11.1762 10.2937 13.7159 7.1716 13.7159Z" fill="#956D84"/>
  </symbol>

  <symbol xmlns="http://www.w3.org/2000/svg" id="header-nav-arrow" viewBox="0 0 10 5" fill="none">
    <path d="M5 5L0.669873 0.714286L9.33013 0.714287L5 5Z" fill="#333333"/>
  </symbol>

  <symbol xmlns="http://www.w3.org/2000/svg" id="header-dropdown-filter-arrow" viewBox="0 0 10 17" fill="none">
    <path d="M8.73633 1.01377L1.98633 8.37499L8.73633 15.7362" stroke="#333333" stroke-width="1.5"/>
  </symbol>

  <symbol xmlns="http://www.w3.org/2000/svg" id="header-top-account" viewBox="0 0 16 16" fill="none">
    <path d="M13.6569 10.3431C12.7855 9.47181 11.7484 8.82678 10.6168 8.43631C11.8288 7.60159 12.625 6.20463 12.625 4.625C12.625 2.07478 10.5502 0 8 0C5.44978 0 3.375 2.07478 3.375 4.625C3.375 6.20463 4.17122 7.60159 5.38319 8.43631C4.25163 8.82678 3.2145 9.47181 2.34316 10.3431C0.832156 11.8542 0 13.8631 0 16H1.25C1.25 12.278 4.27803 9.25 8 9.25C11.722 9.25 14.75 12.278 14.75 16H16C16 13.8631 15.1678 11.8542 13.6569 10.3431ZM8 8C6.13903 8 4.625 6.486 4.625 4.625C4.625 2.764 6.13903 1.25 8 1.25C9.86097 1.25 11.375 2.764 11.375 4.625C11.375 6.486 9.86097 8 8 8Z" fill="#956D84"/>
  </symbol>

  <symbol xmlns="http://www.w3.org/2000/svg" id="basket-like" viewBox="0 0 21 19" fill="none">
    <path d="M10.5 19C10.201 19 9.9128 18.8899 9.68818 18.6898C8.83983 17.9354 8.02192 17.2265 7.3003 16.6011L7.29662 16.5979C5.18095 14.7644 3.35399 13.181 2.08282 11.6212C0.661858 9.87752 0 8.22423 0 6.41811C0 4.66332 0.591682 3.04441 1.66594 1.8594C2.75301 0.660369 4.24464 0 5.86652 0C7.07872 0 8.18887 0.389737 9.16603 1.15829C9.65918 1.54624 10.1062 2.02103 10.5 2.57484C10.894 2.02103 11.3408 1.54624 11.8341 1.15829C12.8113 0.389737 13.9214 0 15.1336 0C16.7554 0 18.2471 0.660369 19.3342 1.8594C20.4085 3.04441 21 4.66332 21 6.41811C21 8.22423 20.3383 9.87752 18.9173 11.6211C17.6462 13.181 15.8194 14.7642 13.704 16.5975C12.9811 17.2239 12.1619 17.9339 11.3117 18.6901C11.0872 18.8899 10.7988 19 10.5 19ZM5.86652 1.251C4.59231 1.251 3.42176 1.76815 2.57021 2.7073C1.70599 3.66063 1.22999 4.97843 1.22999 6.41811C1.22999 7.93714 1.78514 9.29568 3.02987 10.823C4.23294 12.2994 6.02241 13.8502 8.09434 15.6459L8.09818 15.6491C8.82253 16.2769 9.64364 16.9886 10.4982 17.7485C11.358 16.9871 12.1804 16.2743 12.9061 15.6455C14.9779 13.8498 16.7672 12.2994 17.9703 10.823C19.2149 9.29568 19.77 7.93714 19.77 6.41811C19.77 4.97843 19.294 3.66063 18.4298 2.7073C17.5784 1.76815 16.4077 1.251 15.1336 1.251C14.2002 1.251 13.3432 1.55276 12.5865 2.14779C11.9122 2.6783 11.4424 3.34893 11.167 3.81818C11.0254 4.05949 10.7761 4.20352 10.5 4.20352C10.2239 4.20352 9.97465 4.05949 9.83302 3.81818C9.55776 3.34893 9.08801 2.6783 8.41349 2.14779C7.65678 1.55276 6.79978 1.251 5.86652 1.251Z" fill="#956D84"/>
  </symbol>

  <symbol xmlns="http://www.w3.org/2000/svg"
                  id="basket-like-active"
                  viewBox="0 0 34 31"
                  fill="none"
                >
                  <path
                    d="M17 29.2981C16.5302 29.2981 16.0773 29.1326 15.7243 28.832C14.3912 27.6987 13.1059 26.6337 11.9719 25.6943L11.9662 25.6894C8.64153 22.935 5.77061 20.5563 3.77307 18.2131C1.54012 15.5935 0.500061 13.1098 0.500061 10.3965C0.500061 7.76028 1.42985 5.32822 3.11796 3.54799C4.82622 1.7467 7.17019 0.754639 9.71885 0.754639C11.6237 0.754639 13.3683 1.34014 14.9038 2.49473C15.6787 3.07753 16.3812 3.7908 17 4.62278C17.6191 3.7908 18.3213 3.07753 19.0965 2.49473C20.6321 1.34014 22.3766 0.754639 24.2815 0.754639C26.8299 0.754639 29.1741 1.7467 30.8824 3.54799C32.5705 5.32822 33.5 7.76028 33.5 10.3965C33.5 13.1098 32.4602 15.5935 30.2272 18.2128C28.2297 20.5563 25.359 22.9347 22.0349 25.6889C20.8989 26.6298 19.6116 27.6965 18.2755 28.8325C17.9228 29.1326 17.4696 29.2981 17 29.2981ZM9.00006 21.5204C6.99774 21.5204 7.33822 17.679 6.00006 19.0899C4.64202 20.522 2.00006 14.7149 3.00006 10.8261C3.00006 13.1081 3.30528 14.7194 5.26128 17.0139C7.15181 19.2318 9.96383 21.5616 13.2197 24.2592L13.2258 24.2641C14.364 25.2072 15.6543 26.2764 16.9973 27.418C18.3483 26.2742 19.6406 25.2033 20.7811 24.2587C24.0367 21.5611 26.8485 19.2318 28.739 17.0139C30.6948 14.7194 31.5672 12.6785 31.5672 10.3965C31.5672 8.23367 33.858 13.8533 32.5 12.4211C31.1621 11.0103 32.8844 14.8517 30.8824 14.8517C29.4155 14.8517 29.9281 16.12 28.739 17.0139C27.6793 17.8109 24.4329 22.2738 24.0001 22.9787C23.7775 23.3412 17.4311 27.418 16.9973 27.418C16.5635 27.418 16.7226 28.2023 16.5001 27.8398C17.1093 28.832 14.9019 24.0956 11.5605 25.3533C10.3714 24.4594 10.4666 21.5204 9.00006 21.5204Z"
                    fill="#956D84"
                  />
  </symbol>

  <symbol xmlns="http://www.w3.org/2000/svg" id="basket-nav-arrow" viewBox="0 0 7 12" fill="none">
    <path d="M1.00012 11L5.58496 6L1.00012 1" stroke="#BDBDBD" stroke-width="1.5"/>
  </symbol>

  <symbol xmlns="http://www.w3.org/2000/svg" id="category-menu-arrow" viewBox="0 0 7 14" fill="none">
    <path d="M6.74815 6.30693L1.46799 0.287337C1.1321 -0.0957794 0.587529 -0.0957794 0.25181 0.287337C-0.0839366 0.670113 -0.0839366 1.29094 0.25181 1.67368L4.92394 7.0001L0.251945 12.3263C-0.0838008 12.7093 -0.0838008 13.33 0.251945 13.7128C0.587692 14.0957 1.13224 14.0957 1.46812 13.7128L6.74829 7.69312C6.91616 7.50164 7 7.25095 7 7.00013C7 6.74919 6.916 6.49832 6.74815 6.30693Z" fill="#333333"/>
  </symbol>

  <symbol xmlns="http://www.w3.org/2000/svg" id="pagination-arrow-right" viewBox="0 0 61 60">
    <path d="M25.1422 15L21.6172 18.525L33.0672 30L21.6172 41.475L25.1422 45L40.1422 30L25.1422 15Z" fill="#956D84"/>
  </symbol>

  <symbol xmlns="http://www.w3.org/2000/svg" id="pagination-arrow-left" viewBox="0 0 61 60">
    <path d="M35.0004 45L38.5254 41.475L27.0754 30L38.5254 18.525L35.0004 15L20.0004 30L35.0004 45Z" fill="#956D84"/>
  </symbol>

  <symbol xmlns="http://www.w3.org/2000/svg" id="product-card-category-arrow" viewBox="0 0 7 12">
    <path d="M1.00012 11L5.58496 6L1.00012 1" stroke="#BDBDBD" stroke-width="1.5"/>
  </symbol>

  <symbol xmlns="http://www.w3.org/2000/svg" id="product-card-option-arrow" viewBox="0 0 9 15">
    <path d="M7.96029 1L2 7.5L7.96029 14" stroke="#BDBDBD" stroke-width="1.5"/>
  </symbol>

  <symbol xmlns="http://www.w3.org/2000/svg" id="product-card-tabs-arrow" viewBox="0 0 15 8">
    <path d="M1 0.999912L7.5 6.96021L14 0.999912" stroke="#828282" stroke-width="1.5"/>
  </symbol>

  <symbol xmlns="http://www.w3.org/2000/svg" id="product-card-btn-arrow" viewBox="0 0 21 18">
    <path d="M0.00999999 18L21 9L0.00999999 0L0 7L15 9L0 11L0.00999999 18Z" fill="white"/>
  </symbol>

  <symbol xmlns="http://www.w3.org/2000/svg" id="product-card-swiper-arrow"  width="28" height="28" viewBox="0 0 28 28" fill="none">
   <path d="M0.574118 12.6139L12.6137 0.574675C13.3796 -0.191559 14.6213 -0.191559 15.3868 0.574675C16.1523 1.34023 16.1523 2.58187 15.3868 3.34736L4.7336 14.0002L15.3865 24.6527C16.152 25.4185 16.152 26.6601 15.3865 27.4256C14.6209 28.1915 13.3793 28.1915 12.6134 27.4256L0.573808 15.3862C0.191031 15.0033 -0.000141144 14.5019 -0.000141144 14.0003C-0.000141144 13.4984 0.191403 12.9966 0.574118 12.6139Z" fill="#956D84"/>
  </symbol>

  <symbol xmlns="http://www.w3.org/2000/svg" id="full-favorite" viewBox="0 0 34 30">
    <path d="M17 29.2981C16.5302 29.2981 16.0773 29.1326 15.7243 28.832C14.3912 27.6987 13.1059 26.6337 11.9719 25.6943L11.9662 25.6894C8.64153 22.935 5.77061 20.5563 3.77307 18.2131C1.54012 15.5935 0.500061 13.1098 0.500061 10.3965C0.500061 7.76028 1.42985 5.32822 3.11796 3.54799C4.82622 1.7467 7.17019 0.754639 9.71885 0.754639C11.6237 0.754639 13.3683 1.34014 14.9038 2.49473C15.6787 3.07753 16.3812 3.7908 17 4.62278C17.6191 3.7908 18.3213 3.07753 19.0965 2.49473C20.6321 1.34014 22.3766 0.754639 24.2815 0.754639C26.8299 0.754639 29.1741 1.7467 30.8824 3.54799C32.5705 5.32822 33.5 7.76028 33.5 10.3965C33.5 13.1098 32.4602 15.5935 30.2272 18.2128C28.2297 20.5563 25.359 22.9347 22.0349 25.6889C20.8989 26.6298 19.6116 27.6965 18.2755 28.8325C17.9228 29.1326 17.4696 29.2981 17 29.2981ZM9.00006 21.5204C6.99774 21.5204 7.33822 17.679 6.00006 19.0899C4.64202 20.522 2.00006 14.7149 3.00006 10.8261C3.00006 13.1081 3.30528 14.7194 5.26128 17.0139C7.15181 19.2318 9.96383 21.5616 13.2197 24.2592L13.2258 24.2641C14.364 25.2072 15.6543 26.2764 16.9973 27.418C18.3483 26.2742 19.6406 25.2033 20.7811 24.2587C24.0367 21.5611 26.8485 19.2318 28.739 17.0139C30.6948 14.7194 31.5672 12.6785 31.5672 10.3965C31.5672 8.23367 33.858 13.8533 32.5 12.4211C31.1621 11.0103 32.8844 14.8517 30.8824 14.8517C29.4155 14.8517 29.9281 16.12 28.739 17.0139C27.6793 17.8109 24.4329 22.2738 24.0001 22.9787C23.7775 23.3412 17.4311 27.418 16.9973 27.418C16.5635 27.418 16.7226 28.2023 16.5001 27.8398C17.1093 28.832 14.9019 24.0956 11.5605 25.3533C10.3714 24.4594 10.4666 21.5204 9.00006 21.5204Z"/>
  </symbol>

  <symbol xmlns="http://www.w3.org/2000/svg" id="giftbox" viewBox="0 0 100 100">
    <g opacity="0.8" clip-path="url(#clip0_0_23)">
    <path id="Vector" d="M98.457 20.1773H90.3149C90.5514 19.8455 90.7658 19.4968 90.9534 19.1313C92.0307 17.0271 92.1764 14.5491 91.3532 12.332L88.8859 5.7005C88.0634 3.48568 86.3354 1.70497 84.1465 0.815377C81.9553 -0.074977 79.4734 -0.00402337 77.3364 1.01069L57.8097 10.2843C56.8446 9.59456 55.6643 9.18715 54.3902 9.18715H45.6102C44.3361 9.18715 43.1551 9.59532 42.19 10.285L22.664 1.00993C20.527 -0.00402327 18.0451 -0.074977 15.8539 0.815377C13.6651 1.70497 11.937 3.48568 11.1145 5.69974L8.64719 12.3328C7.82398 14.5491 7.9697 17.0271 9.04774 19.1313C9.23466 19.4968 9.44981 19.8462 9.68632 20.1773H1.54343C0.691226 20.1773 0 20.8678 0 21.7208V32.8315C0 33.6837 0.691226 34.3749 1.54343 34.3749C2.39564 34.3749 3.08687 33.6837 3.08687 32.8315V23.2634H13.807C13.9786 23.3237 14.1526 23.3794 14.3288 23.4282L27.2859 26.995C24.4065 31.4071 21.8667 36.0481 19.6923 40.8569H3.08687V39.0045C3.08687 38.1523 2.39564 37.4618 1.54343 37.4618C0.691226 37.4618 0 38.1523 0 39.0045V42.4003C0 43.2525 0.691226 43.9438 1.54343 43.9438H7.0473V98.5834C7.0473 99.4364 7.73853 100.127 8.59073 100.127H91.4097C92.2619 100.127 92.9531 99.4364 92.9531 98.5834V89.6219C92.9531 88.7697 92.2619 88.0785 91.4097 88.0785C90.5567 88.0785 89.8662 88.7697 89.8662 89.6219V97.0408H59.2593V44.8929C63.6309 53.1731 66.5904 62.1766 67.9522 71.4791C68.0423 72.0948 68.4939 72.5961 69.0974 72.7502C69.2241 72.783 69.3522 72.7983 69.4797 72.7983C69.9565 72.7983 70.4158 72.577 70.7118 72.1841C72.9304 69.2407 74.9934 66.0897 76.8558 62.7999C79.9747 64.9239 83.0028 67.2921 85.8761 69.8556C86.3605 70.2874 87.064 70.3706 87.6354 70.0623C88.2068 69.7549 88.525 69.1224 88.4304 68.48C87.1982 60.0747 84.901 51.8089 81.6448 43.9438H89.8655V83.4482C89.8655 84.3011 90.5567 84.9916 91.4089 84.9916C92.2619 84.9916 92.9523 84.3011 92.9523 83.4482V43.9438H98.457C99.3092 43.9438 99.9996 43.2525 99.9996 42.4003V21.7208C100 20.8678 99.31 20.1773 98.457 20.1773ZM78.6601 3.79848C80.0373 3.1454 81.5723 3.10115 82.9845 3.67489C84.3944 4.24786 85.4625 5.34878 85.9928 6.77625L88.4594 13.407C88.9904 14.8352 88.8996 16.3687 88.2053 17.7245C87.5118 19.0795 86.3209 20.0484 84.853 20.452L60.2854 27.2155V19.7982C65.8076 16.4168 79.5742 9.44273 83.0005 14.279C83.4926 14.9741 84.4555 15.1396 85.1513 14.6468C85.8471 14.1539 86.0119 13.1903 85.519 12.4953C82.8746 8.76219 77.3021 8.58061 68.9548 11.9566C65.5162 13.3467 62.3416 15.0435 60.2854 16.2207V15.0816C60.2854 14.2554 60.1138 13.468 59.8055 12.7531L78.6601 3.79848ZM45.6102 12.2733H54.3902C55.9389 12.2733 57.1986 13.5336 57.1986 15.0816V27.8388C57.1986 29.3876 55.9389 30.6472 54.3902 30.6472H45.6102C44.0615 30.6472 42.8018 29.3876 42.8018 27.8388V15.0816C42.8018 13.5329 44.0615 12.2733 45.6102 12.2733ZM43.0162 40.8561C44.4925 38.4033 46.0993 36.0259 47.8281 33.7341H52.1708C53.9004 36.0259 55.5071 38.4033 56.9827 40.8561H43.0162ZM11.7951 17.7245C11.1008 16.3687 11.01 14.8352 11.5403 13.4077L14.0084 6.77549C14.5379 5.34878 15.606 4.24786 17.0159 3.67489C18.4274 3.10115 19.9632 3.1454 21.3395 3.79848L40.1949 12.7547C39.8866 13.4688 39.715 14.2554 39.715 15.0824V16.3092C37.6657 15.1297 34.4194 13.3826 30.8931 11.9566C22.5465 8.58061 16.9732 8.76219 14.3288 12.4953C13.836 13.1903 14.0008 14.1539 14.6966 14.6468C15.3924 15.1396 16.3552 14.9748 16.8473 14.279C20.3057 9.39696 34.2988 16.5488 39.715 19.892V27.2155L15.1482 20.4528C13.6796 20.0484 12.4886 19.0795 11.7951 17.7245ZM40.4077 30.6075C41.176 32.0449 42.5218 33.1291 44.1339 33.5464C36.9157 43.6172 31.9467 55.1888 29.6159 67.3516C27.9763 64.956 26.4436 62.4451 25.0405 59.8519C24.8353 59.4719 24.4813 59.1958 24.0624 59.0897C23.6444 58.9837 23.2011 59.0577 22.8402 59.2934C20.2699 60.9696 17.7529 62.8083 15.3222 64.7828C17.8254 51.6434 22.9974 38.974 30.4139 27.8564L40.4077 30.6075ZM10.1342 43.9438H18.3556C15.0994 51.8089 12.8022 60.0739 11.5693 68.48C11.4754 69.1224 11.7928 69.7549 12.3642 70.0623C12.9365 70.3698 13.6391 70.2874 14.1236 69.8556C16.9968 67.2921 20.025 64.9239 23.1446 62.7999C25.007 66.0897 27.0692 69.2399 29.2886 72.1841C29.5846 72.577 30.0439 72.799 30.5208 72.799C30.6482 72.799 30.7763 72.783 30.903 72.7502C31.5065 72.5961 31.9574 72.0948 32.0474 71.4791C33.41 62.1766 36.3695 53.1723 40.7404 44.8921V97.0408H10.1342V43.9438ZM43.8272 97.0408V43.9438H56.1732V97.0408H43.8272ZM77.1602 59.2934C76.7993 59.0577 76.3553 58.9844 75.938 59.0905C75.5199 59.1965 75.1651 59.4727 74.9599 59.8519C73.5568 62.4451 72.0241 64.9567 70.3845 67.3516C68.0537 55.188 63.0847 43.6172 55.8657 33.5471C57.4778 33.1306 58.8244 32.0457 59.5927 30.6075L69.5888 27.8556C77.0038 38.9755 82.1758 51.6449 84.679 64.7828C82.2475 62.8083 79.7306 60.9696 77.1602 59.2934ZM96.9135 40.8569H80.3089C78.1345 36.0481 75.5946 31.4071 72.7161 26.995L85.6716 23.4282C85.8478 23.3794 86.0218 23.3237 86.1934 23.2634H96.9135V40.8569Z"/>
    </g>
    <defs>
    <clipPath id="clip0_0_23">
    <rect width="100" height="100"/>
    </clipPath>
    </defs>
  </symbol>

  <symbol xmlns="http://www.w3.org/2000/svg" id="insta" viewBox="0 0 19 19">
    <g>
    <path id="Vector" d="M9.23438 0.00890844C5.45208 0.00890844 1.86042 -0.32755 0.488544 3.19328C-0.0781231 4.64745 0.00416867 6.53599 0.00416867 9.24016C0.00416867 11.6131 -0.0718731 13.8433 0.488544 15.286C1.85729 18.8089 5.47813 18.4714 9.23229 18.4714C12.8542 18.4714 16.5885 18.8485 17.9771 15.286C18.5448 13.8172 18.4615 11.9568 18.4615 9.24016C18.4615 5.63391 18.6604 3.30578 16.9115 1.55787C15.1406 -0.212967 12.7458 0.00890844 9.23021 0.00890844H9.23438ZM9 1.5C16 1.5 17.5 1 17 13C16.5 17 13.2058 17.2111 9.23438 17.2111C2.27816 17.2111 1.30021 16.5 1.14849 9.24016C0.976287 1 3.49999 1.5 9 1.5ZM14.1615 3.20474C13.55 3.20474 13.0542 3.70057 13.0542 4.31203C13.0542 4.92349 13.55 5.41933 14.1615 5.41933C14.7729 5.41933 15.2688 4.92349 15.2688 4.31203C15.2688 3.70057 14.7729 3.20474 14.1615 3.20474ZM9.23438 4.49953C6.61667 4.49953 4.49479 6.62245 4.49479 9.24016C4.49479 11.8579 6.61667 13.9797 9.23438 13.9797C11.8521 13.9797 13.9729 11.8579 13.9729 9.24016C13.9729 6.62245 11.8521 4.49953 9.23438 4.49953ZM9.23438 6.16307C13.3021 6.16307 13.3073 12.3172 9.23438 12.3172C5.16771 12.3172 5.16146 6.16307 9.23438 6.16307Z"/>
    </g>
  </symbol>

  <symbol xmlns="http://www.w3.org/2000/svg" id="loupe" viewBox="0 0 19 20">
    <g>
    <path id="Vector" d="M18.0071 18.8222L12.744 13.5591C13.7423 12.3267 14.3432 10.76 14.3432 9.05417C14.3432 5.09977 11.126 1.88257 7.17156 1.88257C3.21716 1.88257 0 5.09977 0 9.05417C0 13.0086 3.2172 16.2258 7.1716 16.2258C8.87742 16.2258 10.4442 15.6248 11.6766 14.6266L16.9396 19.8897C17.0871 20.0371 17.326 20.0371 17.4735 19.8897L18.0071 19.356C18.1545 19.2086 18.1545 18.9696 18.0071 18.8222ZM7.1716 14.7159C4.04952 14.7159 1.50982 12.1762 1.50982 9.05417C1.50982 5.93208 4.04952 3.39239 7.1716 3.39239C10.2937 3.39239 12.8334 5.93208 12.8334 9.05417C12.8334 12.1762 10.2937 14.7159 7.1716 14.7159Z"/>
    </g>
  </symbol>

  <symbol xmlns="http://www.w3.org/2000/svg" id="mail" viewBox="0 0 18 14">
    <g>
    <g id="Group">
    <g id="Group_2">
    <path id="Vector" d="M14.573 10.4851C14.5016 10.4851 14.4302 10.459 14.3745 10.4062L11.0348 7.27307C10.9181 7.16395 10.9123 6.97996 11.022 6.8633C11.1317 6.74547 11.3145 6.74025 11.4324 6.85053L14.7721 9.98364C14.8888 10.0928 14.8946 10.2767 14.7849 10.3934C14.7274 10.4544 14.6508 10.4851 14.573 10.4851Z"/>
    <path id="Vector_2" d="M3.42526 10.4857C3.34807 10.4857 3.27087 10.4549 3.21341 10.394C3.10371 10.2773 3.10952 10.0933 3.22618 9.9842L6.56708 6.85109C6.68433 6.74197 6.86832 6.74661 6.97744 6.86386C7.08714 6.98052 7.08133 7.16452 6.96467 7.27363L3.62377 10.4067C3.56805 10.4596 3.49666 10.4857 3.42526 10.4857Z"/>
    </g>
    <path id="Vector_3" d="M16.5489 13.3981H1.45105C0.651232 13.3981 0 12.7475 0 11.9471V2.05264C0 1.25224 0.651232 0.25 1.45105 0.25H16.5489C17.3488 0.25 18 1.25224 18 2.05264V11.9471C18 12.7475 17.3488 13.3981 16.5489 13.3981ZM1.45105 1.37503C0.971043 1.37503 1.125 1.57263 1.125 2.05264V12.0625C1.125 12.5425 0.971043 12.2342 1.45105 12.2342H16.5489C17.029 12.2342 16.875 12.4271 16.875 11.9471V1.9375C16.875 1.45749 17.029 1.37503 16.5489 1.37503H1.45105Z"/>
    <path id="Vector_4" d="M9.00066 8.45819C8.61468 8.45819 8.2287 8.32992 7.935 8.07396L0.482406 1.57266C0.361678 1.46761 0.348909 1.2842 0.453965 1.16289C0.560182 1.04216 1.0049 0.708563 1.12563 0.812458L8.43813 6.99996C8.80901 7.32326 9.19282 7.32326 9.56313 6.99996L16.8756 0.812439C16.6235 0.479422 17.4307 1.05203 17.5375 1.17334C17.6425 1.29464 17.6304 1.47748 17.5096 1.58311L10.0663 8.07338C9.77204 8.32992 9.38664 8.45819 9.00066 8.45819Z"/>
    </g>
    </g>
  </symbol>

  <symbol xmlns="http://www.w3.org/2000/svg" id="phone" viewBox="0 0 17 17" fill="none">
<path d="M1.32297 1.21015L1.19647 1.37156C0.987877 1.63772 0.81158 1.94721 0.679691 2.28325C0.556693 2.60783 0.482099 2.91203 0.448074 3.21321L0.447735 3.21621C0.143441 5.73878 1.27004 8.09887 4.60735 11.4362C4.60736 11.4362 4.60736 11.4362 4.60737 11.4363M1.32297 1.21015L4.32452 11.7191L4.60737 11.4363M1.32297 1.21015L1.84342 0.686708C1.84353 0.686591 1.84365 0.686474 1.84377 0.686357C2.20879 0.321601 2.77228 0.326554 3.0983 0.652438C3.09832 0.652457 3.09833 0.652477 3.09835 0.652496L5.5747 3.1294C5.90146 3.45655 5.90628 4.01994 5.54162 4.3847L5.54149 4.38483L5.13018 4.79665L5.12979 4.79703L4.29279 5.63279L4.07639 5.84887L4.22816 6.11437C4.26412 6.17726 4.30046 6.24301 4.33974 6.31406C4.34628 6.3259 4.3529 6.33788 4.35962 6.35002L4.35995 6.3506L4.36487 6.35946C4.80516 7.15219 5.42607 8.27011 6.60165 9.44558C7.77791 10.6227 8.89777 11.2433 9.69086 11.6827C9.77715 11.7312 9.85932 11.7769 9.9388 11.8207L10.2021 11.9658L10.4147 11.7532L11.6624 10.5058L11.6625 10.5057C12.0262 10.1418 12.5898 10.1457 12.9175 10.4717C12.9177 10.4718 12.9178 10.4719 12.9179 10.4721L15.3934 12.9479C15.3935 12.9479 15.3936 12.948 15.3937 12.9481C15.7199 13.2756 15.7245 13.8384 15.3621 14.2032L14.8022 14.7515L14.6749 14.8511C14.4083 15.0597 14.0984 15.2359 13.7652 15.3661C13.4544 15.4867 13.1509 15.5624 12.8341 15.6005C12.7126 15.6129 9.11681 15.9454 4.60737 11.4363M1.32297 1.21015L4.60737 11.4363M4.70963 6.15638C4.70306 6.1445 4.69653 6.13269 4.69003 6.12094C4.65084 6.05003 4.61293 5.98145 4.57542 5.91584L4.70963 6.15638Z" stroke="#956D84" stroke-width="0.8"/>
</symbol>

  <symbol xmlns="http://www.w3.org/2000/svg" id="photos" viewBox="0 0 100 100">
    <g opacity="0.8" clip-path="url(#clip0_0_38)">
    <g id="Group">
    <path id="Vector" d="M99.3389 34.0269C98.7994 33.2904 98.0053 32.8079 97.1031 32.6687L68.0525 28.1824V3.42076C68.0525 1.5362 66.5191 0.00280762 64.6345 0.00280762H3.41796C1.53339 0.00280762 0 1.5362 0 3.42076V64.676C0 66.5605 1.53339 68.0939 3.41796 68.0939H26.2315L23.3554 86.7195C23.0706 88.5624 24.3685 90.3349 26.2116 90.6192L86.7108 99.9624C88.5123 100.24 90.3299 98.921 90.6102 97.1059L92.1746 86.9757C92.4637 85.104 89.5682 84.6564 89.2793 86.5286C89.0823 87.8042 88.1721 97.2194 87.1579 97.0671L26.6587 87.7239C26.3688 87.6509 26.2327 87.4652 26.2507 87.1667L29.196 68.0941H32.4739L30.0913 83.5218C29.9678 84.3214 30.5159 85.0697 31.3155 85.1931L83.4813 93.2493C84.2176 93.3626 85.0368 92.7745 85.1526 92.0251L93.2231 39.7663C93.3465 38.9667 92.7985 38.2185 91.9989 38.095L68.0523 34.3968V31.1468L96.6559 35.5642C96.9457 35.6372 97.0816 35.823 97.0639 36.1214L90.42 79.1421C90.1389 80.9619 93.0215 81.4917 93.3153 79.5892L99.9592 36.5685C100.099 35.6661 99.8781 34.7636 99.3389 34.0269ZM2.92968 64.676V3.42076C2.92968 3.15143 3.14882 2.93248 3.41796 2.93248H64.6343C64.9035 2.93248 65.1226 3.15143 65.1226 3.42076V64.676C65.1226 64.9453 64.9035 65.1643 64.6343 65.1643H3.41796C3.14882 65.1643 2.92968 64.9453 2.92968 64.676ZM90.1041 40.7667L82.4807 90.1302L33.2102 82.521L35.4383 68.0939H64.6343C66.5189 68.0939 68.0523 66.5605 68.0523 64.676V37.3611L90.1041 40.7667Z"/>
    <path id="Vector_2" d="M60.4191 6.14355H7.63476C6.82578 6.14355 6.16992 6.79922 6.16992 7.60839V14.9306C6.16992 16.8246 9.0996 16.8246 9.0996 14.9306V9.07323H58.9541V59.0219H9.0996V22.7212C9.0996 20.8273 6.16992 20.8273 6.16992 22.7212V60.4867C6.16992 61.2959 6.82578 61.9515 7.63476 61.9515H60.4189C61.2279 61.9515 61.8838 61.2959 61.8838 60.4867V7.60839C61.884 6.79922 61.2281 6.14355 60.4191 6.14355Z"/>
    <path id="Vector_3" d="M34.0258 48.6197C34.217 48.6197 34.4082 48.5824 34.5881 48.5074C34.7525 48.439 38.6592 46.798 42.6314 43.6974C48.0467 39.4705 50.9453 34.5441 51.0141 29.4507C51.0859 24.123 47.0271 18.9333 41.4434 18.9333C38.5217 18.9333 35.8152 20.3878 34.0256 22.7927C32.2361 20.3878 29.5297 18.9333 26.6078 18.9333C21.3305 18.9333 17.0371 23.6423 17.0371 29.4308C17.0371 41.6943 32.8033 48.2394 33.4744 48.5119C33.6514 48.5839 33.8387 48.6197 34.0258 48.6197ZM19.967 29.4308C19.967 25.258 22.9461 21.863 26.608 21.863C29.2123 21.863 31.5895 23.6142 32.6641 26.3244C33.1434 27.533 34.9082 27.533 35.3875 26.3244C36.4619 23.6142 38.8391 21.863 41.4434 21.863C45.4066 21.863 48.135 25.6871 48.0846 29.4111C47.9623 38.4783 36.6766 44.3048 34.0182 45.5517C31.341 44.3255 19.967 38.5761 19.967 29.4308Z"/>
    </g>
    </g>
    <defs>
    <clipPath id="clip0_0_38">
    <rect width="100" height="100"/>
    </clipPath>
    </defs>
  </symbol>

  <symbol xmlns="http://www.w3.org/2000/svg" id="right-arrow-without-line" viewBox="0 0 7 14">
    <g>
    <path id="Vector" d="M6.74815 6.30693L1.46799 0.287337C1.1321 -0.0957794 0.587529 -0.0957794 0.25181 0.287337C-0.0839366 0.670113 -0.0839366 1.29094 0.25181 1.67368L4.92394 7.0001L0.251945 12.3263C-0.0838008 12.7093 -0.0838008 13.33 0.251945 13.7128C0.587692 14.0957 1.13224 14.0957 1.46812 13.7128L6.74829 7.69312C6.91616 7.50164 7 7.25095 7 7.00013C7 6.74919 6.916 6.49832 6.74815 6.30693Z"/>
    </g>
  </symbol>

  <symbol xmlns="http://www.w3.org/2000/svg" id="skype" viewBox="0 0 18 18">
    <g clip-path="url(#clip0_0_567)">
    <path id="Vector" d="M17.5106 10.8031C17.6365 10.2084 17.7002 9.60274 17.7002 9C17.7002 6.67612 16.7952 4.49135 15.1521 2.84807C13.5088 1.20479 11.324 0.299789 9.00014 0.299789C8.3985 0.299789 7.79288 0.36351 7.19714 0.489578C6.52437 0.168777 5.78018 0 5.03256 0C2.25755 0 0 2.25755 0 5.03242C0 5.77977 0.168777 6.52396 0.489578 7.19714C0.363785 7.79178 0.300064 8.39726 0.300064 9C0.300064 11.3239 1.20506 13.5087 2.84821 15.1519C4.49135 16.7951 6.67612 17.7001 9.00014 17.7001C9.60178 17.7001 10.2073 17.6362 10.8029 17.5104C11.4759 17.8312 12.2201 18 12.9677 18C15.7426 18 18 15.7424 18 12.9677C18 12.2204 17.8312 11.4762 17.5106 10.8031ZM12.9677 16.9453C12.3151 16.9453 11.6926 16.7916 11.1172 16.4884C11.0408 16.4482 10.9564 16.4276 10.8714 16.4276C10.8311 16.4276 10.7908 16.4323 10.7511 16.4416C10.1736 16.5769 9.58461 16.6454 9.00014 16.6454C4.78441 16.6454 1.35475 13.2157 1.35475 9C1.35475 8.41443 1.42328 7.82542 1.55855 7.24933C1.58752 7.1256 1.57091 6.99554 1.51172 6.88307C1.20836 6.30725 1.05469 5.6846 1.05469 5.03242C1.05469 2.83914 2.83914 1.05469 5.03256 1.05469C5.68515 1.05469 6.30753 1.20836 6.88266 1.51144C6.99513 1.57077 7.12518 1.58739 7.24892 1.55841C7.82652 1.42314 8.41566 1.35448 9.00014 1.35448C13.2159 1.35448 16.6455 4.78427 16.6455 9C16.6455 9.58557 16.577 10.1747 16.4417 10.7509C16.4126 10.8747 16.4292 11.0047 16.4884 11.1172C16.7916 11.6929 16.9453 12.3154 16.9453 12.9677C16.9453 15.161 15.161 16.9453 12.9677 16.9453Z"/>
    <path id="Vector_2" d="M9.00076 4.92299C10.5563 4.92299 11.8707 5.7357 11.8707 6.69769C11.8707 6.98897 12.1067 7.22504 12.398 7.22504C12.6891 7.22504 12.9254 6.98897 12.9254 6.69769C12.9254 5.90242 12.4896 5.16936 11.6987 4.63336C10.9706 4.13994 10.0125 3.86816 9.00076 3.86816C7.98906 3.86816 7.03091 4.13994 6.3028 4.63336C5.51178 5.16936 5.07617 5.90242 5.07617 6.69769C5.07617 7.49297 5.51178 8.22617 6.3028 8.76216C7.03078 9.25558 7.98892 9.52722 9.00076 9.52722C10.5563 9.52722 11.8707 10.3399 11.8707 11.3021C11.8707 12.2641 10.5563 13.0768 9.00076 13.0768C7.4451 13.0768 6.13086 12.2641 6.13086 11.3021C6.13086 11.0108 5.89479 10.7747 5.60352 10.7747C5.31238 10.7747 5.07617 11.0108 5.07617 11.3021C5.07617 12.0972 5.51178 12.8304 6.3028 13.3664C7.03091 13.8597 7.98906 14.1315 9.00076 14.1315C10.0125 14.1315 10.9706 13.8597 11.6987 13.3664C12.4896 12.8304 12.9254 12.0972 12.9254 11.3021C12.9254 10.5067 12.4896 9.77359 11.6987 9.23759C10.9706 8.74431 10.0125 8.47253 9.00076 8.47253C7.4451 8.47253 6.13086 7.65982 6.13086 6.69769C6.13086 5.7357 7.4451 4.92299 9.00076 4.92299Z"/>
    </g>
    <defs>
    <clipPath id="clip0_0_567">
    <rect width="18" height="18"/>
    </clipPath>
    </defs>
  </symbol>

  <symbol xmlns="http://www.w3.org/2000/svg" id="Stars" viewBox="0 0 74 15">
    <g>
    <path id="Star 1" d="M7.5 0L9.18386 5.18237H14.6329L10.2245 8.38525L11.9084 13.5676L7.5 10.3647L3.09161 13.5676L4.77547 8.38525L0.367076 5.18237H5.81614L7.5 0Z"/>
    <path id="Star 2" d="M22.5 0L24.1839 5.18237H29.6329L25.2245 8.38525L26.9084 13.5676L22.5 10.3647L18.0916 13.5676L19.7755 8.38525L15.3671 5.18237H20.8161L22.5 0Z"/>
    <path id="Star 3" d="M37.5 0L39.1839 5.18237H44.6329L40.2245 8.38525L41.9084 13.5676L37.5 10.3647L33.0916 13.5676L34.7755 8.38525L30.3671 5.18237H35.8161L37.5 0Z"/>
    <path id="Star 4" d="M51.5 0L53.1839 5.18237H58.6329L54.2245 8.38525L55.9084 13.5676L51.5 10.3647L47.0916 13.5676L48.7755 8.38525L44.3671 5.18237H49.8161L51.5 0Z"/>
    <path id="Star 5" d="M66.5 0L68.1839 5.18237H73.6329L69.2245 8.38525L70.9084 13.5676L66.5 10.3647L62.0916 13.5676L63.7755 8.38525L59.3671 5.18237H64.8161L66.5 0Z"/>
    </g>
  </symbol>

  <symbol xmlns="http://www.w3.org/2000/svg" id="telegram" viewBox="0 0 14 14">
    <g clip-path="url(#clip0_0_726)">
    <path id="Vector" d="M13.7838 1.39069C13.6128 1.18155 13.3567 1.06641 13.0625 1.06641C12.9026 1.06641 12.7332 1.10005 12.5591 1.1666L0.708396 5.69038C0.0794897 5.93039 -0.00521178 6.29056 0.000235596 6.48389C0.00568298 6.67722 0.110679 7.03204 0.752189 7.23616C0.756034 7.23734 0.759879 7.23851 0.763724 7.23958L3.22188 7.94304L4.55126 11.7445C4.73252 12.2627 5.13937 12.5846 5.61318 12.5846C5.91193 12.5846 6.20577 12.4595 6.46297 12.2228L7.98344 10.8228L10.1888 12.5985C10.189 12.5987 10.1893 12.5988 10.1895 12.5991L10.2105 12.6159C10.2124 12.6174 10.2144 12.619 10.2163 12.6205C10.4615 12.8107 10.729 12.9111 10.9904 12.9112H10.9905C11.5012 12.9112 11.9078 12.5332 12.0263 11.9483L13.968 2.36043C14.046 1.97559 13.9806 1.63123 13.7838 1.39069ZM4.04423 7.80942L8.78677 5.38661L5.83375 8.52441C5.78536 8.57579 5.75107 8.6387 5.7342 8.70717L5.16479 11.0137L4.04423 7.80942ZM5.90723 11.6193C5.88758 11.6373 5.86782 11.6535 5.84806 11.6683L6.37635 9.52866L7.33733 10.3025L5.90723 11.6193ZM13.164 2.19754L11.2223 11.7855C11.2036 11.8772 11.1439 12.0907 10.9904 12.0907C10.9146 12.0907 10.8193 12.0494 10.7218 11.9743L8.2228 9.9622C8.22248 9.96188 8.22205 9.96156 8.22163 9.96135L6.7347 8.76399L11.0051 4.22632C11.1419 4.08105 11.1542 3.85857 11.0345 3.69899C10.9147 3.53941 10.6975 3.48921 10.5199 3.58L3.49618 7.16823L1.00458 6.45537L12.8517 1.93297C12.9518 1.89473 13.0216 1.88672 13.0625 1.88672C13.0876 1.88672 13.1323 1.88971 13.1488 1.91011C13.1706 1.93671 13.1984 2.02739 13.164 2.19754Z"/>
    </g>
    <defs>
    <clipPath id="clip0_0_726">
    <rect width="14" height="14"/>
    </clipPath>
    </defs>
  </symbol>

  <symbol xmlns="http://www.w3.org/2000/svg" id="three-arrow" viewBox="0 0 27 15">
    <g opacity="0.4" clip-path="url(#clip0_0_514)">
    <path d="M6.25039 3.75L5.36914 4.63125L8.23164 7.5L5.36914 10.3688L6.25039 11.25L10.0004 7.5L6.25039 3.75Z"/>
    </g>
    <g opacity="0.7" clip-path="url(#clip1_0_514)">
    <path d="M12.2504 3.75L11.3691 4.63125L14.2316 7.5L11.3691 10.3688L12.2504 11.25L16.0004 7.5L12.2504 3.75Z"/>
    </g>
    <g opacity="0.9" clip-path="url(#clip2_0_514)">
    <path d="M18.2504 3.75L17.3691 4.63125L20.2316 7.5L17.3691 10.3688L18.2504 11.25L22.0004 7.5L18.2504 3.75Z"/>
    </g>
    <defs>
    <clipPath>
    <rect width="15" height="15"/>
    </clipPath>
    <clipPath id="clip1_0_514">
    <rect width="15" height="15" transform="translate(6)"/>
    </clipPath>
    <clipPath id="clip2_0_514">
    <rect width="15" height="15" transform="translate(12)"/>
    </clipPath>
    </defs>
  </symbol>

  <symbol xmlns="http://www.w3.org/2000/svg" id="viber" viewBox="0 0 15 15">
    <g clip-path="url(#clip0_0_733)">
    <g id="Group">
    <g id="Group_2">
    <path id="Vector" d="M8.92879 0H6.07168C3.07916 0 0.644531 2.43406 0.644531 5.42601V7.99975C0.644531 10.2279 2.01367 12.2303 4.07238 13.0458V14.7143C4.07238 14.8275 4.13894 14.9297 4.24235 14.9754C4.27948 14.992 4.3189 15 4.35804 15C4.42745 15 4.4963 14.9746 4.54971 14.926L6.20622 13.4258H8.92879C11.9213 13.4258 14.3559 10.9917 14.3559 7.99975V5.42601C14.3559 2.43406 11.9213 0 8.92879 0ZM13.7846 7.99975C13.7846 10.6766 11.6065 12.8544 8.92879 12.8544H6.09596C6.02512 12.8544 5.95685 12.8807 5.90429 12.9284L4.64369 14.0702V12.8479C4.64369 12.7268 4.56742 12.6188 4.45316 12.5788C2.517 11.8941 1.21584 10.0539 1.21584 7.99975V5.42601C1.21584 2.74914 3.39424 0.571309 6.07168 0.571309H8.92879C11.6065 0.571309 13.7846 2.74914 13.7846 5.42601V7.99975Z"/>
    <path id="Vector_2" d="M11.2753 8.71051L9.51962 7.57018C9.32766 7.44535 9.09914 7.40307 8.87547 7.44935C8.65152 7.49648 8.45899 7.62874 8.33415 7.82156L8.2516 7.94839C7.49176 7.6973 6.65394 7.37651 6.15233 5.92453L6.36 5.74399C6.71649 5.43406 6.75391 4.89188 6.44398 4.53482L5.07055 2.95486C4.96715 2.83574 4.78661 2.82346 4.66749 2.92658L3.8051 3.67614C3.04869 4.33372 3.40204 5.30637 3.51831 5.62602C3.52345 5.6403 3.52973 5.65401 3.53716 5.66744C3.56715 5.72114 4.28329 6.99916 5.4399 8.1772C6.60109 9.36009 8.69751 10.4524 8.76178 10.4841C9.00116 10.6395 9.27053 10.7141 9.53705 10.7141C10.0049 10.7141 10.4637 10.4847 10.7374 10.0642L11.3595 9.10614C11.4452 8.97332 11.4075 8.79649 11.2753 8.71051ZM10.258 9.75287C10.0007 10.1494 9.46877 10.2619 9.04886 9.9911C9.02801 9.98025 6.9453 8.89562 5.84753 7.77728C4.82146 6.73207 4.14018 5.57088 4.04734 5.40892C3.8211 4.77448 3.86109 4.38456 4.17988 4.10748L4.82689 3.54531L6.01293 4.9096C6.11833 5.03071 6.10605 5.20782 5.9855 5.31265L5.63501 5.61716C5.54959 5.69143 5.51589 5.80884 5.54931 5.91681C6.1469 7.85869 7.30894 8.24004 8.15733 8.51855L8.28102 8.5594C8.40471 8.60111 8.54011 8.5534 8.61095 8.44428L8.81348 8.13235C8.85519 8.06779 8.91918 8.02409 8.99345 8.00837C9.068 7.99238 9.14399 8.00723 9.20854 8.04922L10.7248 9.03387L10.258 9.75287Z"/>
    <path id="Vector_3" d="M8.15309 4.64107C8.00113 4.59736 7.84316 4.68563 7.80003 4.8376C7.75689 4.98928 7.84487 5.14725 7.99656 5.19038C8.42218 5.3115 8.76125 5.65114 8.88123 6.07706C8.91665 6.20274 9.03119 6.2853 9.15603 6.2853C9.18173 6.2853 9.20773 6.28187 9.23372 6.27473C9.38541 6.23188 9.47396 6.0742 9.43111 5.92223C9.25772 5.30693 8.76782 4.81589 8.15309 4.64107Z"/>
    <path id="Vector_4" d="M10.3266 6.34708C10.3523 6.34708 10.3783 6.34365 10.4043 6.33651C10.5562 6.29366 10.6445 6.1357 10.6017 5.98401C10.2646 4.78912 9.31364 3.83618 8.11961 3.49625C7.96792 3.45255 7.80996 3.54138 7.76682 3.69307C7.72369 3.84475 7.81167 4.00272 7.96335 4.04585C8.968 4.3315 9.76812 5.13391 10.0518 6.13912C10.0875 6.26481 10.2017 6.34708 10.3266 6.34708Z"/>
    <path id="Vector_5" d="M7.99684 2.16573C7.84488 2.12202 7.68691 2.21029 7.64378 2.36254C7.60064 2.51423 7.68862 2.67219 7.84031 2.71533C9.54252 3.19951 10.8985 4.55865 11.379 6.26201C11.4144 6.3877 11.529 6.47025 11.6538 6.47025C11.6795 6.47025 11.7055 6.46683 11.7315 6.45968C11.8832 6.41684 11.9717 6.25887 11.9289 6.10719C11.395 4.21415 9.88845 2.70419 7.99684 2.16573Z"/>
    </g>
    </g>
    </g>
    <defs>
    <clipPath id="clip0_0_733">
    <rect width="15" height="15"/>
    </clipPath>
    </defs>
  </symbol>

  <symbol xmlns="http://www.w3.org/2000/svg" id="video" viewBox="0 0 100 100">
    <g opacity="0.8" clip-path="url(#clip0_0_31)">
    <g id="Group">
    <path id="Vector" d="M28.1861 31.1069H30.1352C29.3877 30.0826 28.7564 28.9698 28.2416 27.7905C27.3115 25.6369 26.7967 23.2783 26.7967 20.8035C26.7967 18.6442 27.1898 16.5625 27.915 14.636C28.6625 12.6373 29.7588 10.8157 31.1318 9.24338C31.6633 8.6344 32.5879 8.57327 33.1914 9.10491C33.8004 9.63655 33.8613 10.5555 33.3297 11.1645C32.1836 12.4766 31.2701 13.9938 30.65 15.6547C30.0521 17.2491 29.7254 18.9821 29.7254 20.8035C29.7254 22.8854 30.1518 24.8561 30.9213 26.6334C31.6465 28.3055 32.6818 29.8225 33.9496 31.1069H54.8277C56.0955 29.8225 57.1309 28.3055 57.8561 26.6334C58.6256 24.8561 59.052 22.8854 59.052 20.8035C59.052 16.7563 57.4131 13.0856 54.7557 10.4336C52.1035 7.78186 48.4385 6.13752 44.3857 6.13752C43.2674 6.13752 42.1877 6.2592 41.1635 6.48616C40.1115 6.72424 39.0873 7.07854 38.1184 7.53811C37.3875 7.88694 36.5184 7.57151 36.175 6.84065C35.8262 6.10979 36.1418 5.24065 36.8727 4.89749C38.0187 4.35491 39.2479 3.92854 40.5379 3.64065C41.7893 3.35823 43.0791 3.20862 44.3857 3.20862C49.2469 3.20862 53.6428 5.17971 56.8318 8.36311C58.3766 9.90784 59.6332 11.7405 60.5191 13.7725C61.2443 12.1115 62.2188 10.5832 63.3926 9.24358C63.924 8.6346 64.8486 8.57346 65.4521 9.1051C66.0611 9.63674 66.1221 10.5557 65.5904 11.1647C64.4443 12.4768 63.5309 13.994 62.9053 15.6549C62.3072 17.2492 61.9807 18.9823 61.9807 20.8037C61.9807 22.8856 62.4125 24.8563 63.1822 26.6336C63.9074 28.3057 64.9371 29.8227 66.2105 31.1071H87.083C88.3564 29.8227 89.3918 28.3057 90.117 26.6336C90.8865 24.8563 91.3129 22.8856 91.3129 20.8037C91.3129 16.7565 89.6686 13.0858 87.0166 10.4338C84.3646 7.78206 80.6996 6.13772 76.6469 6.13772C75.523 6.13772 74.4488 6.2594 73.4246 6.48635C72.3727 6.72444 71.3484 7.07874 70.3795 7.53831C69.6486 7.88713 68.7795 7.57171 68.4307 6.84085C68.0875 6.10999 68.4029 5.24085 69.1283 4.89768C70.2799 4.3551 71.509 3.92874 72.7936 3.64085C74.0504 3.35842 75.3404 3.20881 76.6469 3.20881C81.508 3.20881 85.9039 5.17991 89.0873 8.36331C92.2707 11.5469 94.2418 15.9483 94.2418 20.8039C94.2418 23.2787 93.727 25.6373 92.7912 27.7908C92.2818 28.9701 91.6451 30.083 90.9033 31.1073H92.8465C94.8176 31.1073 96.6059 31.9157 97.9014 33.2112C99.1973 34.5063 100 36.2944 100 38.26V76.3674C100 78.3385 99.1973 80.1266 97.9016 81.4223C96.6061 82.7178 94.8178 83.5205 92.8467 83.5205H82.477L78.9891 95.7286C78.8119 96.3596 78.2361 96.7914 77.5828 96.7914H43.4559C42.7639 96.7914 42.1824 96.3098 42.0275 95.6621L38.5617 83.5205H28.1861C26.2207 83.5205 24.4324 82.7178 23.1369 81.4223C21.8414 80.1266 21.0332 78.3383 21.0332 76.3674V67.8799H16.0004V70.7754C16.0004 71.4842 15.4965 72.0823 14.8211 72.2151L1.87129 75.9688C0.946875 76.2403 0 75.5371 0 74.5684V60.6328C0 59.8244 0.658789 59.1657 1.46719 59.1657C2.27539 59.1657 2.92871 59.8244 2.92871 60.6328V72.6248L13.0717 69.6793C13.0717 61.4356 13.0717 53.1916 13.0717 44.9479L2.92871 42.008V53.9946C2.92871 54.8086 2.27539 55.4617 1.46719 55.4617C0.658789 55.4617 0 54.8084 0 53.9946V40.0594C0 39.0241 1.04648 38.3264 1.99316 38.6973L14.943 42.451C15.5686 42.6338 16.0004 43.2039 16.0004 43.8518V46.7475H21.033V38.26C21.033 36.2944 21.8414 34.5063 23.1367 33.2108C24.4326 31.9096 26.2207 31.1069 28.1861 31.1069ZM76.6471 13.5229C78.6568 13.5229 80.4783 14.3367 81.7961 15.6545C83.1137 16.9721 83.9275 18.7936 83.9275 20.8033C83.9275 22.8129 83.1137 24.6346 81.7961 25.9522C80.4783 27.2699 78.6568 28.0838 76.6471 28.0838C74.6373 28.0838 72.8158 27.2699 71.4982 25.9522C70.1805 24.6346 69.3666 22.8131 69.3666 20.8033C69.3666 18.7936 70.1805 16.9721 71.4982 15.6545C72.8158 14.3367 74.6373 13.5229 76.6471 13.5229ZM79.7254 17.7252C78.9393 16.9391 77.8484 16.4518 76.6471 16.4518C75.4457 16.4518 74.3605 16.9389 73.5687 17.7252C72.7826 18.5168 72.2953 19.602 72.2953 20.8035C72.2953 22.0049 72.7824 23.0957 73.5687 23.8817C74.3605 24.6678 75.4455 25.1553 76.6471 25.1553C77.8484 25.1553 78.9393 24.668 79.7254 23.8817C80.5115 23.0957 80.9988 22.0049 80.9988 20.8035C80.9988 19.602 80.5115 18.5168 79.7254 17.7252ZM44.3859 13.5229C46.4012 13.5229 48.2172 14.3367 49.535 15.6545C50.8525 16.9721 51.6664 18.7936 51.6664 20.8033C51.6664 22.8129 50.8525 24.6346 49.535 25.9522C48.2172 27.2699 46.4014 28.0838 44.3859 28.0838C42.3762 28.0838 40.5604 27.2699 39.2426 25.9522C37.9248 24.6346 37.1055 22.8131 37.1055 20.8033C37.1055 18.7936 37.925 16.9721 39.2426 15.6545C40.5604 14.3367 42.3762 13.5229 44.3859 13.5229ZM47.4645 17.7252C46.6783 16.9391 45.593 16.4518 44.3861 16.4518C43.1848 16.4518 42.0996 16.9389 41.3135 17.7252C40.5273 18.5168 40.04 19.602 40.04 20.8035C40.04 22.0049 40.5271 23.0957 41.3135 23.8817C42.0996 24.6678 43.1848 25.1553 44.3861 25.1553C45.5875 25.1553 46.6783 24.668 47.4645 23.8817C48.2506 23.0957 48.7379 22.0049 48.7379 20.8035C48.7377 19.602 48.2504 18.5168 47.4645 17.7252ZM50.0609 61.5686C50.6367 62.1387 50.6367 63.069 50.0609 63.6393C49.4906 64.2094 48.5605 64.2094 47.9902 63.6393L43.7936 59.4424C41.6842 57.333 40.6322 54.5594 40.6322 51.7854C40.6322 49.0117 41.6842 46.2325 43.7936 44.1284C45.8311 42.0909 48.5715 40.967 51.4506 40.967C54.2244 40.967 56.9982 42.019 59.1076 44.1284L60.5195 45.5403L61.9313 44.1284C64.0352 42.019 66.8145 40.967 69.5883 40.967C72.3621 40.967 75.1357 42.019 77.2453 44.1284C79.2771 46.1604 80.4066 48.9063 80.4066 51.7854C80.4066 54.5594 79.3492 57.3385 77.2453 59.4424L61.5549 75.1274C60.9846 75.7032 60.0545 75.7032 59.4842 75.1274L52.6853 68.3286C52.1096 67.7584 52.1096 66.8338 52.6853 66.2578C53.2557 65.6877 54.1857 65.6877 54.7561 66.2578L60.5195 72.0213L75.1746 57.3662C76.6584 55.8825 77.4777 53.8838 77.4777 51.7854C77.4777 49.7592 76.708 47.7328 75.1746 46.1991C73.6356 44.6655 71.6146 43.8959 69.5883 43.8959C67.5619 43.8959 65.5355 44.6655 64.002 46.1991L61.5547 48.6461C60.9844 49.2164 60.0543 49.2164 59.484 48.6461L57.0369 46.1991C55.5531 44.7153 53.5488 43.8903 51.4506 43.8903C49.4297 43.8903 47.4035 44.66 45.8643 46.1991C44.3307 47.7328 43.5611 49.7592 43.5611 51.7854C43.5611 53.8117 44.3307 55.8326 45.8643 57.3717L50.0609 61.5686ZM21.0332 64.9514V49.6817H16.0004V64.9514H21.0332ZM60.5193 27.8239C60.01 28.9918 59.3789 30.0938 58.6426 31.1069H62.3908C61.6598 30.0936 61.0287 28.9918 60.5193 27.8239ZM79.432 83.5207H41.6012L44.5576 93.8629H76.4754L79.432 83.5207ZM92.8467 34.0358C71.2934 34.0358 49.7398 34.0358 28.1861 34.0358C27.0291 34.0358 25.9717 34.5119 25.2076 35.2815C24.4381 36.0453 23.9619 37.1028 23.9619 38.2602V76.3676C23.9619 77.5303 24.4381 78.5823 25.2076 79.352C25.9717 80.1159 27.0291 80.5922 28.1861 80.5922H92.8467C94.0094 80.5922 95.0668 80.1161 95.8309 79.352C96.5951 78.5823 97.0711 77.5303 97.0711 76.3676V38.2602C97.0711 37.103 96.5949 36.0455 95.8309 35.2815C95.067 34.5118 94.0096 34.0358 92.8467 34.0358Z"/>
    </g>
    </g>
    <defs>
    <clipPath id="clip0_0_31">
    <rect width="100" height="100"/>
    </clipPath>
    </defs>
  </symbol>

  <symbol xmlns="http://www.w3.org/2000/svg" id="burger" viewBox="0 0 30 19">
    <rect width="30" height="2" rx="1"/>
    <rect y="16.6152" width="30" height="2" rx="1"/>
    <rect x="5" y="8.30762" width="20" height="2" rx="1"/>
  </symbol>

  <symbol xmlns="http://www.w3.org/2000/svg" id="certificate-card-bg-right"   viewBox="0 0 451 219" fill="none">
    <path d="M0 5.50747e-05H450.5C450.5 5.50747e-05 288 -14.9999 229.8 96.3211C155.716 238.025 119.4 218.594 119.4 218.594H0V5.50747e-05Z" fill="#956D84"/>
  </symbol>

  <symbol xmlns="http://www.w3.org/2000/svg" id="pagination-arrow-right" viewBox="0 0 61 60">
    <path d="M25.1422 15L21.6172 18.525L33.0672 30L21.6172 41.475L25.1422 45L40.1422 30L25.1422 15Z" fill="#956D84"/>
  </symbol>

  <symbol xmlns="http://www.w3.org/2000/svg" id="pagination-arrow-left" viewBox="0 0 61 60">
    <path d="M35.0004 45L38.5254 41.475L27.0754 30L38.5254 18.525L35.0004 15L20.0004 30L35.0004 45Z" fill="#956D84"/>
  </symbol>


  <symbol xmlns="http://www.w3.org/2000/svg" id="basket" viewBox="0 0 33 29">
    <path d="M10.6322 19.3342H10.6338C10.635 19.3342 10.6363 19.334 10.6375 19.334H28.166C28.5975 19.334 28.977 19.0477 29.0956 18.6328L32.9627 5.09765C33.0461 4.80585 32.9877 4.49214 32.8051 4.24994C32.6223 4.00774 32.3366 3.86523 32.0332 3.86523H8.40257L7.71146 0.755119C7.61302 0.312759 7.22076 -0.00195312 6.76758 -0.00195312H0.966797C0.432793 -0.00195312 0 0.43084 0 0.964844C0 1.49885 0.432793 1.93164 0.966797 1.93164H5.99213C6.11449 2.48277 9.29938 16.815 9.48267 17.6396C8.45519 18.0862 7.73438 19.1107 7.73438 20.3008C7.73438 21.9 9.03552 23.2012 10.6348 23.2012H28.166C28.7 23.2012 29.1328 22.7684 29.1328 22.2344C29.1328 21.7004 28.7 21.2676 28.166 21.2676H10.6348C10.1018 21.2676 9.66797 20.8338 9.66797 20.3008C9.66797 19.7685 10.1003 19.3355 10.6322 19.3342ZM30.7514 5.79883L27.4366 17.4004H11.4102L8.83209 5.79883H30.7514Z"/>
    <path d="M9.66797 26.1016C9.66797 27.7008 10.9691 29.002 12.5684 29.002C14.1676 29.002 15.4688 27.7008 15.4688 26.1016C15.4688 24.5023 14.1676 23.2012 12.5684 23.2012C10.9691 23.2012 9.66797 24.5023 9.66797 26.1016ZM12.5684 25.1348C13.1014 25.1348 13.5352 25.5686 13.5352 26.1016C13.5352 26.6346 13.1014 27.0684 12.5684 27.0684C12.0354 27.0684 11.6016 26.6346 11.6016 26.1016C11.6016 25.5686 12.0354 25.1348 12.5684 25.1348Z"/>
    <path d="M23.332 26.1016C23.332 27.7008 24.6332 29.002 26.2324 29.002C27.8317 29.002 29.1328 27.7008 29.1328 26.1016C29.1328 24.5023 27.8317 23.2012 26.2324 23.2012C24.6332 23.2012 23.332 24.5023 23.332 26.1016ZM26.2324 25.1348C26.7654 25.1348 27.1992 25.5686 27.1992 26.1016C27.1992 26.6346 26.7654 27.0684 26.2324 27.0684C25.6994 27.0684 25.2656 26.6346 25.2656 26.1016C25.2656 25.5686 25.6994 25.1348 26.2324 25.1348Z"/>
  </symbol>


</svg>  